<?xml version="1.0" encoding="UTF-8" standalone="no"?>
<svg
   xmlns:dc="http://purl.org/dc/elements/1.1/"
   xmlns:cc="http://creativecommons.org/ns#"
   xmlns:rdf="http://www.w3.org/1999/02/22-rdf-syntax-ns#"
   xmlns:svg="http://www.w3.org/2000/svg"
   xmlns="http://www.w3.org/2000/svg"
   xmlns:sodipodi="http://sodipodi.sourceforge.net/DTD/sodipodi-0.dtd"
   xmlns:inkscape="http://www.inkscape.org/namespaces/inkscape"
   sodipodi:docname="origami-tuckbox.svg"
   inkscape:version="1.0 (4035a4f, 2020-05-01)"
   id="svg8"
   version="1.1"
   viewBox="0 0 210 297"
   height="297mm"
   width="210mm">
  <defs
     id="defs2" />
  <sodipodi:namedview
     inkscape:window-maximized="0"
     inkscape:window-y="23"
     inkscape:window-x="40"
     inkscape:window-height="855"
     inkscape:window-width="1252"
     showgrid="false"
     inkscape:document-rotation="0"
     inkscape:current-layer="layer5"
     inkscape:document-units="mm"
     inkscape:cy="561.25984"
     inkscape:cx="396.85039"
     inkscape:zoom="0.50435986"
     inkscape:pageshadow="2"
     inkscape:pageopacity="0.0"
     borderopacity="1.0"
     bordercolor="#666666"
     pagecolor="#ffffff"
     id="base" />
  <metadata
     id="metadata5">
    <rdf:RDF>
      <cc:Work
         rdf:about="">
        <dc:format>image/svg+xml</dc:format>
        <dc:type
           rdf:resource="http://purl.org/dc/dcmitype/StillImage" />
        <dc:title></dc:title>
      </cc:Work>
    </rdf:RDF>
  </metadata>
  <g
     sodipodi:insensitive="true"
     style="display:none;opacity:0.3"
     id="layer1"
     inkscape:groupmode="layer"
     inkscape:label="References">
    <g
       id="g1189">
      <rect
         style="fill:#800000;stroke:none;stroke-width:0.4"
         id="rect833"
         width="40"
         height="40"
         x="20"
         y="28.499998" />
      <rect
         y="28.499998"
         x="60"
         height="40"
         width="10"
         id="rect841"
         style="fill:#0000ff;stroke:none;stroke-width:0.4" />
      <rect
         style="fill:#0000ff;stroke:none;stroke-width:0.4"
         id="rect849"
         width="10"
         height="40"
         x="68.5"
         y="-60"
         transform="rotate(90)" />
      <rect
         style="fill:#ff0000;stroke:none;stroke-width:0.4"
         id="rect857"
         width="10"
         height="10"
         x="60"
         y="68.5" />
      <rect
         y="188.5"
         x="20"
         height="80"
         width="40"
         id="rect839"
         style="fill:#808000;stroke:none;stroke-width:0.4" />
      <rect
         style="fill:#0000ff;stroke:none;stroke-width:0.4"
         id="rect847"
         width="10"
         height="80"
         x="60"
         y="188.5" />
      <rect
         style="fill:#0000ff;stroke:none;stroke-width:0.4"
         id="rect853"
         width="10"
         height="40"
         x="178.5"
         y="-60"
         transform="rotate(90)" />
      <rect
         y="178.5"
         x="60"
         height="10"
         width="10"
         id="rect859"
         style="fill:#ff0000;stroke:none;stroke-width:0.4" />
      <rect
         y="28.500002"
         x="150"
         height="40"
         width="40"
         id="rect835"
         style="fill:#800000;stroke:none;stroke-width:0.4" />
      <rect
         style="fill:#0000ff;stroke:none;stroke-width:0.4"
         id="rect843"
         width="10"
         height="40"
         x="140"
         y="28.500002" />
      <rect
         transform="rotate(90)"
         y="-190"
         x="68.5"
         height="40"
         width="10"
         id="rect851"
         style="fill:#0000ff;stroke:none;stroke-width:0.4" />
      <rect
         style="fill:#ff0000;stroke:none;stroke-width:0.4"
         id="rect861"
         width="10"
         height="10"
         x="140"
         y="68.5" />
      <rect
         style="fill:#808000;stroke:none;stroke-width:0.4"
         id="rect837"
         width="40"
         height="80"
         x="150"
         y="188.5" />
      <rect
         y="188.5"
         x="140"
         height="80"
         width="10"
         id="rect845"
         style="fill:#0000ff;stroke:none;stroke-width:0.4" />
      <rect
         transform="rotate(90)"
         y="-190"
         x="178.5"
         height="40"
         width="10"
         id="rect855"
         style="fill:#0000ff;stroke:none;stroke-width:0.4" />
      <rect
         y="178.5"
         x="140"
         height="10"
         width="10"
         id="rect863"
         style="fill:#ff0000;stroke:none;stroke-width:0.4" />
      <rect
         style="fill:#008000;stroke:none;stroke-width:0.4"
         id="rect889"
         width="70"
         height="100"
         x="70"
         y="78.5" />
      <rect
         y="78.5"
         x="60"
         height="100"
         width="10"
         id="rect907"
         style="fill:#0000ff;stroke:none;stroke-width:0.4" />
      <rect
         style="fill:#0000ff;stroke:none;stroke-width:0.4"
         id="rect909"
         width="10"
         height="100"
         x="140"
         y="78.5" />
      <rect
         transform="rotate(90)"
         y="-140"
         x="68.5"
         height="70"
         width="10"
         id="rect911"
         style="fill:#0000ff;stroke:none;stroke-width:0.4" />
      <rect
         style="fill:#0000ff;stroke:none;stroke-width:0.4"
         id="rect913"
         width="10"
         height="70"
         x="178.5"
         y="-140"
         transform="rotate(90)" />
      <rect
         y="138.5"
         x="150"
         height="40"
         width="40"
         id="rect915"
         style="fill:#800000;stroke:none;stroke-width:0.4" />
      <rect
         style="fill:#800000;stroke:none;stroke-width:0.4"
         id="rect917"
         width="40"
         height="40"
         x="20"
         y="138.5" />
      <rect
         y="78.5"
         x="150"
         height="40"
         width="40"
         id="rect919"
         style="fill:#800000;stroke:none;stroke-width:0.4" />
      <rect
         style="fill:#800000;stroke:none;stroke-width:0.4"
         id="rect921"
         width="40"
         height="40"
         x="20"
         y="78.5" />
      <rect
         y="188.5"
         x="150"
         height="40"
         width="40"
         id="rect983"
         style="fill:#800000;stroke:none;stroke-width:0.4" />
      <rect
         style="fill:#800000;stroke:none;stroke-width:0.4"
         id="rect985"
         width="40"
         height="40"
         x="20"
         y="188.5" />
      <rect
         style="fill:#ff0000;stroke:none;stroke-width:0.4"
         id="rect1055"
         width="10"
         height="10"
         x="130"
         y="258.5" />
      <rect
         y="258.5"
         x="70"
         height="10"
         width="10"
         id="rect1057"
         style="fill:#ff0000;stroke:none;stroke-width:0.4" />
      <rect
         y="188.5"
         x="70"
         height="60"
         width="70"
         id="rect1154"
         style="fill:#008000;stroke:none;stroke-width:0.4" />
      <rect
         style="fill:#008000;stroke:none;stroke-width:0.4"
         id="rect1156"
         width="70"
         height="40"
         x="70"
         y="28.5" />
    </g>
  </g>
  <g
     sodipodi:insensitive="true"
     style="display:none"
     inkscape:label="Visible (reverse side)"
     id="layer5"
     inkscape:groupmode="layer">
    <rect
       y="78.499992"
       x="70"
       height="100"
       width="70"
       id="rect1192"
       style="fill:none;stroke:#000000;stroke-width:0.499999;stroke-miterlimit:4;stroke-dasharray:none;stroke-dashoffset:0" />
    <rect
       y="188.49998"
       x="70"
       height="60"
       width="70"
       id="rect1194"
       style="fill:none;stroke:#000000;stroke-width:0.499999;stroke-miterlimit:4;stroke-dasharray:none;stroke-dashoffset:0" />
    <rect
       y="28.5"
       x="70"
       height="40"
       width="70"
       id="rect1196"
       style="fill:none;stroke:#000000;stroke-width:0.499999;stroke-miterlimit:4;stroke-dasharray:none;stroke-dashoffset:0" />
    <rect
       y="68.5"
       x="70"
       height="10"
       width="70"
       id="rect1198"
       style="fill:none;stroke:#000000;stroke-width:0.499999;stroke-miterlimit:4;stroke-dasharray:none;stroke-dashoffset:0" />
    <rect
       y="178.5"
       x="70"
       height="10"
       width="70"
       id="rect1200"
       style="fill:none;stroke:#000000;stroke-width:0.499999;stroke-miterlimit:4;stroke-dasharray:none;stroke-dashoffset:0" />
    <rect
       y="78.499992"
       x="60"
       height="100"
       width="10"
       id="rect1202"
       style="fill:none;stroke:#000000;stroke-width:0.499999;stroke-miterlimit:4;stroke-dasharray:none;stroke-dashoffset:0" />
    <rect
       y="78.499985"
       x="140"
       height="100.00001"
       width="10"
       id="rect1204"
       style="fill:none;stroke:#000000;stroke-width:0.499999;stroke-miterlimit:4;stroke-dasharray:none;stroke-dashoffset:0" />
    <g
       style="stroke-width:6.36595"
       transform="matrix(0.04156227,0,0,0.04156227,83.834414,201.07073)"
       id="g1343">
      <path
         style="stroke-width:6.36595"
         class="st0"
         d="m 633.8,37.1 c -8.4,12.9 -15.6,26.6 -21.5,40.7 -6,14.1 -11.4,28.4 -15.9,43.1 L 582.9,164.3 573,27.2 Z"
         id="path1319" />
      <path
         style="stroke-width:6.36595"
         class="st0"
         d="M 395.4,164.3 305.3,90.1 c 2.1,-4.8 5.4,-9.9 9.9,-15.3 4.5,-5.4 9.9,-10.5 15.6,-15.3 5.7,-5.1 11.7,-9.3 17.7,-12.6 6.3,11.7 12.3,24.2 17.4,37.4 l 15,40.1 z"
         id="path1321" />
      <polygon
         style="stroke-width:6.36595"
         class="st0"
         points="863.8,132.3 901.2,189.1 769.8,232.2 "
         id="polygon1323" />
      <polygon
         style="stroke-width:6.36595"
         class="st0"
         points="109.8,231.4 208,302 86.5,302 "
         id="polygon1325" />
      <path
         style="stroke-width:6.36595"
         class="st0"
         d="m 827.2,456.5 107.8,19.8 -13.8,60.5 c -9.3,-4.5 -18.9,-9.9 -28.1,-16.2 -9.3,-6.3 -18.3,-12.9 -26.9,-20.1 -8.7,-7.5 -16.2,-15 -22.7,-22.4 -7,-7.5 -12.4,-14.7 -16.3,-21.6 z"
         id="path1327" />
      <path
         style="stroke-width:6.36595"
         class="st0"
         d="m 178.2,503.5 c 10.5,-3 21.6,-5.4 32.6,-6.9 -8.7,8.1 -16.5,16.5 -23.3,25.7 l -20.4,27.8 c -6.3,9 -13.2,17.4 -20.7,25.1 -7.5,7.8 -15.9,14.1 -25.7,19.2 -3.9,-7.2 -8.4,-14.1 -13.5,-20.7 -5.1,-6.6 -9.6,-13.5 -14.1,-20.7 -4.2,-7.2 -7.5,-15 -9.6,-23.3 11.1,-1.5 22.1,-3.9 32.6,-6.9 l 31.1,-9.9 z"
         id="path1329" />
      <path
         style="stroke-width:6.36595"
         class="st0"
         d="m 732.7,683.6 c -7.2,-10.5 -13.5,-22.1 -19.2,-35 -5.7,-12.9 -10.8,-26.3 -15.3,-40.4 -4.5,-14.1 -8.7,-28.1 -12.6,-41.9 l 84.1,80.2 z"
         id="path1331" />
      <path
         style="stroke-width:6.36595"
         class="st0"
         d="M 297.2,718.6 280.1,718 c -5.7,-1.5 -11.7,-3.3 -18,-6 l -18,-7.2 76.3,-90.1 z"
         id="path1333" />
      <path
         style="stroke-width:6.36595"
         class="st0"
         d="m 744.1,246 c 9,8.1 17.4,16.8 25.4,25.7 8.1,9 14.7,18.3 20.4,28.1 5.7,9.9 9.6,20.1 12,31.1 2.4,15.3 2.1,29.6 -1.2,42.8 -3.3,13.2 -9,25.4 -17.1,37.1 -8.1,11.7 -17.7,23 -28.7,33.5 -11.1,10.5 -23.3,21 -36.5,31.1 l -39.8,30.8 c -13.5,10.5 -26.3,21.2 -39.2,32.3 -12.9,11.1 -24.2,23 -34.7,35.3 -10.5,12.3 -19.5,25.7 -26.3,40.1 -6.8,14.4 -11.4,29.9 -13.5,46.7 h -40.4 l -41.9,1.2 c -14.1,0.6 -27.8,1.8 -41.3,3.9 -13.5,2.1 -26,4.8 -38.3,8.7 -2.1,-8.1 -3.3,-16.5 -3.6,-25.4 l -0.9,-26.3 c -0.3,-8.7 -0.9,-17.4 -2.4,-25.4 -1.5,-8.1 -4.2,-15.6 -8.1,-22.4 -3.9,-6.9 -9.6,-12.9 -17.7,-18 -10.8,-7.5 -22.4,-14.4 -34.7,-21 l -37.4,-19.8 c -12.6,-6.3 -24.5,-13.2 -36.2,-20.7 -11.7,-7.5 -22.1,-15.9 -31.4,-25.1 -9.3,-9.3 -17.1,-19.8 -22.7,-31.4 -6,-11.7 -9.6,-25.4 -11.1,-40.7 0,-14.4 2.1,-28.1 6.6,-41.3 4.5,-13.5 10.5,-26 18.3,-38.3 7.8,-12 16.8,-23.3 26.9,-34.1 10.2,-10.5 21.3,-20.4 33.2,-29.3 11.7,-9 23.9,-17.1 36.5,-24.2 12.6,-6.9 25.1,-12.9 37.4,-18 29.3,-9.6 59.3,-17.1 90.1,-22.4 30.8,-5.4 62,-8.1 93.1,-8.4 31.1,-0.3 61.7,3 91.6,9.6 29.9,6.3 58.7,16.8 85.9,31.1 9.1,7.6 18.4,15.1 27.7,23.1 z"
         id="path1335" />
      <path
         style="stroke-width:6.36595"
         class="st0"
         d="m 561.8,721 c -14.1,0.6 -28.4,0.9 -42.5,0.6 L 476.2,721 c -14.1,-0.3 -28.1,0.3 -41.6,1.2 -13.5,0.9 -26.6,2.7 -39.2,6 v -26.6 c 18.3,-3.9 36.8,-7.2 55.7,-10.5 18.9,-3 38,-5.1 56.9,-6.3 19.2,-1.5 38,-1.5 56.9,0 2.1,3 3,6 3.3,9.3 0,3.3 -0.6,6.3 -1.5,9.3 l -3.3,9 c -1,3 -1.6,5.9 -1.6,8.6 z"
         id="path1337" />
      <path
         style="stroke-width:6.36595"
         class="st0"
         d="m 554,752.2 -4.2,33.5 H 395.1 l -0.9,-15 -0.6,-9 0.3,-6.3 1.5,-5.4 h 28.1 l 33.8,-0.6 35.9,-0.3 c 11.7,0 23,0.3 33.5,0.6 z"
         id="path1339" />
      <path
         style="stroke-width:6.36595"
         class="st0"
         d="m 546.8,809.3 c -2.4,6.6 -5.1,12.6 -8.4,18 -3,5.7 -6.9,10.5 -11.7,14.7 -4.8,4.5 -10.8,8.1 -18.3,10.8 l -20.7,1.8 -22.4,2.1 c -7.5,0.6 -15,0.9 -22.1,0.6 -7.2,-0.6 -14.1,-1.8 -20.4,-3.9 -6.6,-2.1 -12.3,-5.7 -17.4,-10.5 l -6,-9.6 c -2.1,-3.3 -3.3,-6.6 -4.2,-9.9 -0.9,-3.3 -0.9,-7.2 0,-11.4 11.4,-2.7 23.3,-4.8 35.9,-5.7 l 38.6,-1.5 39.2,1.5 z"
         id="path1341" />
    </g>
    <g
       id="g1988"
       transform="matrix(0.04156227,0,0,0.04156227,83.834414,30.053619)"
       style="stroke-width:6.36595">
      <path
         id="path1964"
         d="m 633.8,37.1 c -8.4,12.9 -15.6,26.6 -21.5,40.7 -6,14.1 -11.4,28.4 -15.9,43.1 L 582.9,164.3 573,27.2 Z"
         class="st0"
         style="stroke-width:6.36595" />
      <path
         id="path1966"
         d="M 395.4,164.3 305.3,90.1 c 2.1,-4.8 5.4,-9.9 9.9,-15.3 4.5,-5.4 9.9,-10.5 15.6,-15.3 5.7,-5.1 11.7,-9.3 17.7,-12.6 6.3,11.7 12.3,24.2 17.4,37.4 l 15,40.1 z"
         class="st0"
         style="stroke-width:6.36595" />
      <polygon
         id="polygon1968"
         points="901.2,189.1 769.8,232.2 863.8,132.3 "
         class="st0"
         style="stroke-width:6.36595" />
      <polygon
         id="polygon1970"
         points="208,302 86.5,302 109.8,231.4 "
         class="st0"
         style="stroke-width:6.36595" />
      <path
         id="path1972"
         d="m 827.2,456.5 107.8,19.8 -13.8,60.5 c -9.3,-4.5 -18.9,-9.9 -28.1,-16.2 -9.3,-6.3 -18.3,-12.9 -26.9,-20.1 -8.7,-7.5 -16.2,-15 -22.7,-22.4 -7,-7.5 -12.4,-14.7 -16.3,-21.6 z"
         class="st0"
         style="stroke-width:6.36595" />
      <path
         id="path1974"
         d="m 178.2,503.5 c 10.5,-3 21.6,-5.4 32.6,-6.9 -8.7,8.1 -16.5,16.5 -23.3,25.7 l -20.4,27.8 c -6.3,9 -13.2,17.4 -20.7,25.1 -7.5,7.8 -15.9,14.1 -25.7,19.2 -3.9,-7.2 -8.4,-14.1 -13.5,-20.7 -5.1,-6.6 -9.6,-13.5 -14.1,-20.7 -4.2,-7.2 -7.5,-15 -9.6,-23.3 11.1,-1.5 22.1,-3.9 32.6,-6.9 l 31.1,-9.9 z"
         class="st0"
         style="stroke-width:6.36595" />
      <path
         id="path1976"
         d="m 732.7,683.6 c -7.2,-10.5 -13.5,-22.1 -19.2,-35 -5.7,-12.9 -10.8,-26.3 -15.3,-40.4 -4.5,-14.1 -8.7,-28.1 -12.6,-41.9 l 84.1,80.2 z"
         class="st0"
         style="stroke-width:6.36595" />
      <path
         id="path1978"
         d="M 297.2,718.6 280.1,718 c -5.7,-1.5 -11.7,-3.3 -18,-6 l -18,-7.2 76.3,-90.1 z"
         class="st0"
         style="stroke-width:6.36595" />
      <path
         id="path1980"
         d="m 744.1,246 c 9,8.1 17.4,16.8 25.4,25.7 8.1,9 14.7,18.3 20.4,28.1 5.7,9.9 9.6,20.1 12,31.1 2.4,15.3 2.1,29.6 -1.2,42.8 -3.3,13.2 -9,25.4 -17.1,37.1 -8.1,11.7 -17.7,23 -28.7,33.5 -11.1,10.5 -23.3,21 -36.5,31.1 l -39.8,30.8 c -13.5,10.5 -26.3,21.2 -39.2,32.3 -12.9,11.1 -24.2,23 -34.7,35.3 -10.5,12.3 -19.5,25.7 -26.3,40.1 -6.8,14.4 -11.4,29.9 -13.5,46.7 h -40.4 l -41.9,1.2 c -14.1,0.6 -27.8,1.8 -41.3,3.9 -13.5,2.1 -26,4.8 -38.3,8.7 -2.1,-8.1 -3.3,-16.5 -3.6,-25.4 l -0.9,-26.3 c -0.3,-8.7 -0.9,-17.4 -2.4,-25.4 -1.5,-8.1 -4.2,-15.6 -8.1,-22.4 -3.9,-6.9 -9.6,-12.9 -17.7,-18 -10.8,-7.5 -22.4,-14.4 -34.7,-21 l -37.4,-19.8 c -12.6,-6.3 -24.5,-13.2 -36.2,-20.7 -11.7,-7.5 -22.1,-15.9 -31.4,-25.1 -9.3,-9.3 -17.1,-19.8 -22.7,-31.4 -6,-11.7 -9.6,-25.4 -11.1,-40.7 0,-14.4 2.1,-28.1 6.6,-41.3 4.5,-13.5 10.5,-26 18.3,-38.3 7.8,-12 16.8,-23.3 26.9,-34.1 10.2,-10.5 21.3,-20.4 33.2,-29.3 11.7,-9 23.9,-17.1 36.5,-24.2 12.6,-6.9 25.1,-12.9 37.4,-18 29.3,-9.6 59.3,-17.1 90.1,-22.4 30.8,-5.4 62,-8.1 93.1,-8.4 31.1,-0.3 61.7,3 91.6,9.6 29.9,6.3 58.7,16.8 85.9,31.1 9.1,7.6 18.4,15.1 27.7,23.1 z"
         class="st0"
         style="stroke-width:6.36595" />
      <path
         id="path1982"
         d="m 561.8,721 c -14.1,0.6 -28.4,0.9 -42.5,0.6 L 476.2,721 c -14.1,-0.3 -28.1,0.3 -41.6,1.2 -13.5,0.9 -26.6,2.7 -39.2,6 v -26.6 c 18.3,-3.9 36.8,-7.2 55.7,-10.5 18.9,-3 38,-5.1 56.9,-6.3 19.2,-1.5 38,-1.5 56.9,0 2.1,3 3,6 3.3,9.3 0,3.3 -0.6,6.3 -1.5,9.3 l -3.3,9 c -1,3 -1.6,5.9 -1.6,8.6 z"
         class="st0"
         style="stroke-width:6.36595" />
      <path
         id="path1984"
         d="m 554,752.2 -4.2,33.5 H 395.1 l -0.9,-15 -0.6,-9 0.3,-6.3 1.5,-5.4 h 28.1 l 33.8,-0.6 35.9,-0.3 c 11.7,0 23,0.3 33.5,0.6 z"
         class="st0"
         style="stroke-width:6.36595" />
      <path
         id="path1986"
         d="m 546.8,809.3 c -2.4,6.6 -5.1,12.6 -8.4,18 -3,5.7 -6.9,10.5 -11.7,14.7 -4.8,4.5 -10.8,8.1 -18.3,10.8 l -20.7,1.8 -22.4,2.1 c -7.5,0.6 -15,0.9 -22.1,0.6 -7.2,-0.6 -14.1,-1.8 -20.4,-3.9 -6.6,-2.1 -12.3,-5.7 -17.4,-10.5 l -6,-9.6 c -2.1,-3.3 -3.3,-6.6 -4.2,-9.9 -0.9,-3.3 -0.9,-7.2 0,-11.4 11.4,-2.7 23.3,-4.8 35.9,-5.7 l 38.6,-1.5 39.2,1.5 z"
         class="st0"
         style="stroke-width:6.36595" />
    </g>
    <g
       style="stroke-width:6.36595"
       transform="matrix(-0.04156227,0,0,-0.04156227,126.16559,152.85349)"
       id="g2014">
      <path
         style="stroke-width:6.36595"
         class="st0"
         d="m 633.8,37.1 c -8.4,12.9 -15.6,26.6 -21.5,40.7 -6,14.1 -11.4,28.4 -15.9,43.1 L 582.9,164.3 573,27.2 Z"
         id="path1990" />
      <path
         style="stroke-width:6.36595"
         class="st0"
         d="M 395.4,164.3 305.3,90.1 c 2.1,-4.8 5.4,-9.9 9.9,-15.3 4.5,-5.4 9.9,-10.5 15.6,-15.3 5.7,-5.1 11.7,-9.3 17.7,-12.6 6.3,11.7 12.3,24.2 17.4,37.4 l 15,40.1 z"
         id="path1992" />
      <polygon
         style="stroke-width:6.36595"
         class="st0"
         points="863.8,132.3 901.2,189.1 769.8,232.2 "
         id="polygon1994" />
      <polygon
         style="stroke-width:6.36595"
         class="st0"
         points="109.8,231.4 208,302 86.5,302 "
         id="polygon1996" />
      <path
         style="stroke-width:6.36595"
         class="st0"
         d="m 827.2,456.5 107.8,19.8 -13.8,60.5 c -9.3,-4.5 -18.9,-9.9 -28.1,-16.2 -9.3,-6.3 -18.3,-12.9 -26.9,-20.1 -8.7,-7.5 -16.2,-15 -22.7,-22.4 -7,-7.5 -12.4,-14.7 -16.3,-21.6 z"
         id="path1998" />
      <path
         style="stroke-width:6.36595"
         class="st0"
         d="m 178.2,503.5 c 10.5,-3 21.6,-5.4 32.6,-6.9 -8.7,8.1 -16.5,16.5 -23.3,25.7 l -20.4,27.8 c -6.3,9 -13.2,17.4 -20.7,25.1 -7.5,7.8 -15.9,14.1 -25.7,19.2 -3.9,-7.2 -8.4,-14.1 -13.5,-20.7 -5.1,-6.6 -9.6,-13.5 -14.1,-20.7 -4.2,-7.2 -7.5,-15 -9.6,-23.3 11.1,-1.5 22.1,-3.9 32.6,-6.9 l 31.1,-9.9 z"
         id="path2000" />
      <path
         style="stroke-width:6.36595"
         class="st0"
         d="m 732.7,683.6 c -7.2,-10.5 -13.5,-22.1 -19.2,-35 -5.7,-12.9 -10.8,-26.3 -15.3,-40.4 -4.5,-14.1 -8.7,-28.1 -12.6,-41.9 l 84.1,80.2 z"
         id="path2002" />
      <path
         style="stroke-width:6.36595"
         class="st0"
         d="M 297.2,718.6 280.1,718 c -5.7,-1.5 -11.7,-3.3 -18,-6 l -18,-7.2 76.3,-90.1 z"
         id="path2004" />
      <path
         style="stroke-width:6.36595"
         class="st0"
         d="m 744.1,246 c 9,8.1 17.4,16.8 25.4,25.7 8.1,9 14.7,18.3 20.4,28.1 5.7,9.9 9.6,20.1 12,31.1 2.4,15.3 2.1,29.6 -1.2,42.8 -3.3,13.2 -9,25.4 -17.1,37.1 -8.1,11.7 -17.7,23 -28.7,33.5 -11.1,10.5 -23.3,21 -36.5,31.1 l -39.8,30.8 c -13.5,10.5 -26.3,21.2 -39.2,32.3 -12.9,11.1 -24.2,23 -34.7,35.3 -10.5,12.3 -19.5,25.7 -26.3,40.1 -6.8,14.4 -11.4,29.9 -13.5,46.7 h -40.4 l -41.9,1.2 c -14.1,0.6 -27.8,1.8 -41.3,3.9 -13.5,2.1 -26,4.8 -38.3,8.7 -2.1,-8.1 -3.3,-16.5 -3.6,-25.4 l -0.9,-26.3 c -0.3,-8.7 -0.9,-17.4 -2.4,-25.4 -1.5,-8.1 -4.2,-15.6 -8.1,-22.4 -3.9,-6.9 -9.6,-12.9 -17.7,-18 -10.8,-7.5 -22.4,-14.4 -34.7,-21 l -37.4,-19.8 c -12.6,-6.3 -24.5,-13.2 -36.2,-20.7 -11.7,-7.5 -22.1,-15.9 -31.4,-25.1 -9.3,-9.3 -17.1,-19.8 -22.7,-31.4 -6,-11.7 -9.6,-25.4 -11.1,-40.7 0,-14.4 2.1,-28.1 6.6,-41.3 4.5,-13.5 10.5,-26 18.3,-38.3 7.8,-12 16.8,-23.3 26.9,-34.1 10.2,-10.5 21.3,-20.4 33.2,-29.3 11.7,-9 23.9,-17.1 36.5,-24.2 12.6,-6.9 25.1,-12.9 37.4,-18 29.3,-9.6 59.3,-17.1 90.1,-22.4 30.8,-5.4 62,-8.1 93.1,-8.4 31.1,-0.3 61.7,3 91.6,9.6 29.9,6.3 58.7,16.8 85.9,31.1 9.1,7.6 18.4,15.1 27.7,23.1 z"
         id="path2006" />
      <path
         style="stroke-width:6.36595"
         class="st0"
         d="m 561.8,721 c -14.1,0.6 -28.4,0.9 -42.5,0.6 L 476.2,721 c -14.1,-0.3 -28.1,0.3 -41.6,1.2 -13.5,0.9 -26.6,2.7 -39.2,6 v -26.6 c 18.3,-3.9 36.8,-7.2 55.7,-10.5 18.9,-3 38,-5.1 56.9,-6.3 19.2,-1.5 38,-1.5 56.9,0 2.1,3 3,6 3.3,9.3 0,3.3 -0.6,6.3 -1.5,9.3 l -3.3,9 c -1,3 -1.6,5.9 -1.6,8.6 z"
         id="path2008" />
      <path
         style="stroke-width:6.36595"
         class="st0"
         d="m 554,752.2 -4.2,33.5 H 395.1 l -0.9,-15 -0.6,-9 0.3,-6.3 1.5,-5.4 h 28.1 l 33.8,-0.6 35.9,-0.3 c 11.7,0 23,0.3 33.5,0.6 z"
         id="path2010" />
      <path
         style="stroke-width:6.36595"
         class="st0"
         d="m 546.8,809.3 c -2.4,6.6 -5.1,12.6 -8.4,18 -3,5.7 -6.9,10.5 -11.7,14.7 -4.8,4.5 -10.8,8.1 -18.3,10.8 l -20.7,1.8 -22.4,2.1 c -7.5,0.6 -15,0.9 -22.1,0.6 -7.2,-0.6 -14.1,-1.8 -20.4,-3.9 -6.6,-2.1 -12.3,-5.7 -17.4,-10.5 l -6,-9.6 c -2.1,-3.3 -3.3,-6.6 -4.2,-9.9 -0.9,-3.3 -0.9,-7.2 0,-11.4 11.4,-2.7 23.3,-4.8 35.9,-5.7 l 38.6,-1.5 39.2,1.5 z"
         id="path2012" />
    </g>
  </g>
  <g
     style="display:inline"
     sodipodi:insensitive="true"
     inkscape:label="Border"
     id="layer4"
     inkscape:groupmode="layer">
    <rect
       y="28.499998"
       x="20"
       height="240"
       width="170"
       id="rect1123"
       style="fill:none;stroke:#000000;stroke-width:0.5;stroke-miterlimit:4;stroke-dasharray:none;stroke-dashoffset:0" />
  </g>
  <g
     sodipodi:insensitive="true"
     style="display:inline"
     inkscape:label="Mountain Folds"
     id="layer2"
     inkscape:groupmode="layer">
    <path
       id="path954"
       d="m 69.999999,78.500001 -50,-50.000003"
       style="fill:none;stroke:#000000;stroke-width:0.2;stroke-linecap:butt;stroke-linejoin:miter;stroke-miterlimit:4;stroke-dasharray:0.6, 0.6;stroke-dashoffset:0;stroke-opacity:1" />
    <path
       id="path956"
       d="m 140,78.500001 50,-50"
       style="fill:none;stroke:#000000;stroke-width:0.2;stroke-linecap:butt;stroke-linejoin:miter;stroke-miterlimit:4;stroke-dasharray:0.6, 0.6;stroke-dashoffset:0;stroke-opacity:1" />
    <path
       id="path1016"
       d="M 59.999998,78.499998 20,118.5"
       style="fill:none;stroke:#000000;stroke-width:0.2;stroke-linecap:butt;stroke-linejoin:miter;stroke-miterlimit:4;stroke-dasharray:0.6, 0.6;stroke-dashoffset:0;stroke-opacity:1" />
    <path
       id="path1018"
       d="M 150,78.499998 190,118.5"
       style="fill:none;stroke:#000000;stroke-width:0.2;stroke-linecap:butt;stroke-linejoin:miter;stroke-miterlimit:4;stroke-dasharray:0.6, 0.6;stroke-dashoffset:0;stroke-opacity:1" />
    <path
       id="path1020"
       d="m 150,178.5 40,-40"
       style="fill:none;stroke:#000000;stroke-width:0.2;stroke-linecap:butt;stroke-linejoin:miter;stroke-miterlimit:4;stroke-dasharray:0.6, 0.6;stroke-dashoffset:0;stroke-opacity:1" />
    <path
       id="path1022"
       d="M 59.999998,178.5 20,138.5"
       style="fill:none;stroke:#000000;stroke-width:0.2;stroke-linecap:butt;stroke-linejoin:miter;stroke-miterlimit:4;stroke-dasharray:0.6, 0.6;stroke-dashoffset:0;stroke-opacity:1" />
    <path
       id="path1024"
       d="M 69.999999,178.5 20,228.5"
       style="fill:none;stroke:#000000;stroke-width:0.2;stroke-linecap:butt;stroke-linejoin:miter;stroke-miterlimit:4;stroke-dasharray:0.6, 0.6;stroke-dashoffset:0;stroke-opacity:1" />
    <path
       id="path1026"
       d="m 140,178.5 50,50"
       style="fill:none;stroke:#000000;stroke-width:0.2;stroke-linecap:butt;stroke-linejoin:miter;stroke-miterlimit:4;stroke-dasharray:0.6, 0.6;stroke-dashoffset:0;stroke-opacity:1" />
    <path
       id="path1090"
       d="m 69.999999,258.5 v 9.99998"
       style="fill:none;stroke:#000000;stroke-width:0.2;stroke-linecap:butt;stroke-linejoin:miter;stroke-miterlimit:4;stroke-dasharray:0.6, 0.6;stroke-dashoffset:0;stroke-opacity:1" />
    <path
       id="path1092"
       d="m 140,258.5 v 9.99998"
       style="fill:none;stroke:#000000;stroke-width:0.2;stroke-linecap:butt;stroke-linejoin:miter;stroke-miterlimit:4;stroke-dasharray:0.6, 0.6;stroke-dashoffset:0;stroke-opacity:1" />
    <path
       id="path1098"
       d="M 69.999999,68.5 H 59.999998"
       style="fill:none;stroke:#000000;stroke-width:0.2;stroke-linecap:butt;stroke-linejoin:miter;stroke-miterlimit:4;stroke-dasharray:0.6, 0.6;stroke-dashoffset:0;stroke-opacity:1" />
    <path
       id="path1100"
       d="m 140,68.5 h 10"
       style="fill:none;stroke:#000000;stroke-width:0.2;stroke-linecap:butt;stroke-linejoin:miter;stroke-miterlimit:4;stroke-dasharray:0.6, 0.6;stroke-dashoffset:0;stroke-opacity:1" />
    <path
       id="path1102"
       d="M 69.999999,188.5 H 59.999998"
       style="fill:none;stroke:#000000;stroke-width:0.2;stroke-linecap:butt;stroke-linejoin:miter;stroke-miterlimit:4;stroke-dasharray:0.6, 0.6;stroke-dashoffset:0;stroke-opacity:1" />
    <path
       id="path1104"
       d="m 140,188.5 h 10"
       style="fill:none;stroke:#000000;stroke-width:0.2;stroke-linecap:butt;stroke-linejoin:miter;stroke-miterlimit:4;stroke-dasharray:0.6, 0.6;stroke-dashoffset:0;stroke-opacity:1" />
  </g>
  <g
     sodipodi:insensitive="true"
     style="display:inline"
     inkscape:label="Valley Folds"
     id="layer3"
     inkscape:groupmode="layer">
    <path
       id="path1094"
       d="M 69.999999,28.499998 V 258.5"
       style="fill:none;stroke:#000000;stroke-width:0.2;stroke-linecap:butt;stroke-linejoin:miter;stroke-miterlimit:4;stroke-dasharray:none;stroke-opacity:1" />
    <path
       id="path1096"
       d="M 140,28.500001 V 258.5"
       style="fill:none;stroke:#000000;stroke-width:0.2;stroke-linecap:butt;stroke-linejoin:miter;stroke-miterlimit:4;stroke-dasharray:none;stroke-opacity:1" />
    <path
       id="path1106"
       d="m 59.999998,68.5 v 120"
       style="fill:none;stroke:#000000;stroke-width:0.2;stroke-linecap:butt;stroke-linejoin:miter;stroke-miterlimit:4;stroke-dasharray:none;stroke-opacity:1" />
    <path
       id="path1108"
       d="m 150,68.5 v 120"
       style="fill:none;stroke:#000000;stroke-width:0.2;stroke-linecap:butt;stroke-linejoin:miter;stroke-miterlimit:4;stroke-dasharray:none;stroke-opacity:1" />
    <path
       id="path1110"
       d="M 20,78.499998 H 190"
       style="fill:none;stroke:#000000;stroke-width:0.2;stroke-linecap:butt;stroke-linejoin:miter;stroke-miterlimit:4;stroke-dasharray:none;stroke-opacity:1" />
    <path
       id="path1112"
       d="M 20,178.5 H 190"
       style="fill:none;stroke:#000000;stroke-width:0.2;stroke-linecap:butt;stroke-linejoin:miter;stroke-miterlimit:4;stroke-dasharray:none;stroke-opacity:1" />
    <path
       id="path1114"
       d="M 69.999999,188.5 H 140"
       style="fill:none;stroke:#000000;stroke-width:0.2;stroke-linecap:butt;stroke-linejoin:miter;stroke-miterlimit:4;stroke-dasharray:none;stroke-opacity:1" />
    <path
       id="path1116"
       d="M 69.999999,68.5 H 140"
       style="fill:none;stroke:#000000;stroke-width:0.2;stroke-linecap:butt;stroke-linejoin:miter;stroke-miterlimit:4;stroke-dasharray:none;stroke-opacity:1" />
    <path
       id="path1118"
       d="M 79.999998,268.49998 69.999999,258.5 59.999998,268.49998"
       style="fill:none;stroke:#000000;stroke-width:0.2;stroke-linecap:butt;stroke-linejoin:miter;stroke-miterlimit:4;stroke-dasharray:none;stroke-opacity:1" />
    <path
       id="path1120"
       d="m 130,268.49998 10,-9.99998 10,9.99998"
       style="fill:none;stroke:#000000;stroke-width:0.2;stroke-linecap:butt;stroke-linejoin:miter;stroke-miterlimit:4;stroke-dasharray:none;stroke-opacity:1" />
  </g>
</svg>
