<?xml version="1.0" encoding="UTF-8" standalone="yes"?>
<!DOCTYPE svg PUBLIC "-//W3C//DTD SVG 1.0//EN" "http://www.w3.org/TR/2001/REC-SVG-20010904/DTD/svg10.dtd">
<svg xmlns="http://www.w3.org/2000/svg" width="400" height="400" >
<circle r="4" cy="129" fill="#000000" stroke-width="0" cx="333" />
<circle stroke-width="0" cy="189" cx="39" fill="#000000" r="4" />
<circle r="4" cx="140" cy="156" fill="#000000" stroke-width="0" />
<circle cy="134" stroke-width="0" r="4" cx="292" fill="#000000" />
<circle cy="52" cx="393" r="4" fill="#000000" stroke-width="0" />
<circle fill="#000000" cx="160" stroke-width="0" cy="166" r="4" />
<circle r="4" cy="122" fill="#000000" cx="362" stroke-width="0" />
<circle stroke-width="0" fill="#000000" cx="13" r="4" cy="193" />
<circle cy="104" fill="#000000" cx="341" stroke-width="0" r="4" />
<circle cy="113" fill="#000000" r="4" stroke-width="0" cx="320" />
<circle fill="#000000" cy="177" r="4" cx="109" stroke-width="0" />
<circle stroke-width="0" cy="152" cx="203" fill="#000000" r="4" />
<circle r="4" stroke-width="0" cy="100" fill="#000000" cx="343" />
<circle cx="225" r="4" fill="#000000" cy="110" stroke-width="0" />
<circle fill="#000000" r="4" cx="23" cy="186" stroke-width="0" />
<circle cy="102" cx="282" stroke-width="0" r="4" fill="#000000" />
<circle r="4" cy="98" stroke-width="0" cx="284" fill="#000000" />
<circle cy="133" fill="#000000" r="4" stroke-width="0" cx="205" />
<circle cy="114" r="4" stroke-width="0" cx="297" fill="#000000" />
<circle r="4" fill="#000000" stroke-width="0" cx="292" cy="126" />
<circle stroke-width="0" r="4" fill="#000000" cx="339" cy="112" />
<circle stroke-width="0" cx="327" fill="#000000" cy="79" r="4" />
<circle stroke-width="0" cx="253" fill="#000000" r="4" cy="136" />
<circle stroke-width="0" fill="#000000" cx="61" cy="169" r="4" />
<circle cy="176" cx="128" r="4" fill="#000000" stroke-width="0" />
<circle fill="#000000" r="4" stroke-width="0" cx="346" cy="72" />
<circle stroke-width="0" fill="#000000" cy="103" cx="316" r="4" />
<circle stroke-width="0" cx="124" r="4" cy="162" fill="#000000" />
<circle stroke-width="0" r="4" fill="#000000" cy="181" cx="65" />
<circle r="4" stroke-width="0" cy="137" cx="159" fill="#000000" />
<circle cx="212" stroke-width="0" fill="#000000" r="4" cy="116" />
<circle cx="337" cy="86" stroke-width="0" fill="#000000" r="4" />
<circle cx="215" r="4" cy="136" stroke-width="0" fill="#000000" />
<circle fill="#000000" r="4" stroke-width="0" cx="153" cy="137" />
<circle fill="#000000" cy="104" cx="390" r="4" stroke-width="0" />
<circle fill="#000000" cx="100" cy="180" r="4" stroke-width="0" />
<circle stroke-width="0" r="4" cy="188" fill="#000000" cx="76" />
<circle cx="77" cy="181" r="4" fill="#000000" stroke-width="0" />
<circle r="4" cx="69" fill="#000000" cy="195" stroke-width="0" />
<circle cx="92" fill="#000000" r="4" cy="186" stroke-width="0" />
<circle stroke-width="0" fill="#000000" cx="275" cy="96" r="4" />
<circle fill="#000000" cx="250" stroke-width="0" r="4" cy="147" />
<circle stroke-width="0" cx="34" fill="#000000" r="4" cy="174" />
<circle cy="134" stroke-width="0" r="4" cx="213" fill="#000000" />
<circle cy="129" fill="#000000" stroke-width="0" cx="186" r="4" />
<circle cy="154" cx="189" r="4" fill="#000000" stroke-width="0" />
<circle r="4" stroke-width="0" fill="#000000" cy="82" cx="361" />
<circle cy="89" fill="#000000" r="4" cx="363" stroke-width="0" />
<polyline points="13 196.232838032186 393 82.2493679329179" stroke-width="6" stroke="#ff0000" />
</svg>
