<?xml version="1.0" encoding="UTF-8" standalone="no"?>
<svg
   xmlns:dc="http://purl.org/dc/elements/1.1/"
   xmlns:cc="http://creativecommons.org/ns#"
   xmlns:rdf="http://www.w3.org/1999/02/22-rdf-syntax-ns#"
   xmlns:svg="http://www.w3.org/2000/svg"
   xmlns="http://www.w3.org/2000/svg"
   width="297mm"
   height="210mm"
   viewBox="0 0 297 210"
   version="1.1"
   id="svg8">
  <defs
     id="defs2" />
  <metadata
     id="metadata5">
    <rdf:RDF>
      <cc:Work
         rdf:about="">
        <dc:format>image/svg+xml</dc:format>
        <dc:type
           rdf:resource="http://purl.org/dc/dcmitype/StillImage" />
        <dc:title></dc:title>
      </cc:Work>
    </rdf:RDF>
  </metadata>
  <g
     id="g1233"
     style="display:inline">
    <path
       d="M 53.687925,26.886458 50.199655,3.4168353 38.210844,4.229636 v 5.4186719 l 2.607736,-0.067733 -4.436538,16.9672161 5.012272,-0.270934 v -4.741338 l 5.757338,-0.06773 v 5.655739 z M 43.561782,17.302182 44.71325,8.39524 47.320986,8.1581731 49.183654,17.031248 Z"
       style="font-size:33.8667px;line-height:1.25;font-family:'Some Time Later';-inkscape-font-specification:'Some Time Later';stroke-width:0.148254"
       id="A" />
    <path
       d="m 68.681876,17.031248 c -1.591735,-1.049867 -4.639737,-2.032002 -5.554138,-2.235202 -0.06773,0 -0.1016,-0.06773 -0.1016,-0.1016 0,-0.06773 0.03387,-0.1016 0.1016,-0.135467 0.914401,-0.270933 3.928537,-0.6096 5.147738,-1.591735 0.846667,-0.677334 0.778934,-3.6914698 0.778934,-3.6914698 0,-0.033867 0,-0.067733 0,-0.1016001 0,-0.7789341 -0.135467,-2.0658686 -0.270934,-2.8448027 C 68.512543,5.245637 66.954675,3.6539021 65.329073,3.552302 64.346939,3.4845686 62.687471,3.4168353 61.265069,3.4168353 58.928267,3.4845686 56.185064,3.7555022 55.60933,3.9248357 55.541597,3.9587024 55.439997,4.0603025 55.439997,4.1619026 L 55.169063,27.123525 c 0,0 1.896536,0.1016 6.536273,-0.372534 2.506136,-0.270934 6.77334,-0.575734 7.958675,-0.677334 0.3048,-0.03387 0.575734,-0.3048 0.575734,-0.643467 v 0 c 0.03387,-1.761069 0.06773,-7.281341 -1.557869,-8.398942 z M 61.739203,5.6181707 c 0,0 0,0 0,0 0.3048,0 0.677334,0.2370669 0.812801,0.4741338 0.237067,0.8128008 0.474134,2.133602 0.474134,2.9802695 0.06773,1.219201 -0.06773,2.946403 -0.270934,3.352803 -0.135467,0.270934 -0.474134,0.541867 -0.745067,0.609601 -0.338667,0.1016 -3.048003,0 -3.048003,0 l -0.1016,-7.2136071 c 0,0 2.506135,-0.2032002 2.878669,-0.2032002 z m 5.689605,15.9173483 c 0,0.270934 -0.06773,0.745068 -0.169333,0.982135 -0.06773,0.2032 -0.609601,0.1016 -0.609601,0.1016 h -9.076275 l 0.169333,-5.621872 c 0,0 3.759204,0.338667 5.147739,0.440267 1.388534,0.06773 3.69147,0.575734 3.99627,0.948267 0.2032,0.304801 0.406401,0.846668 0.440267,1.185335 0.03387,0.169333 0.135467,1.659468 0.1016,1.964268 z"
       style="font-size:33.8667px;line-height:1.25;font-family:'Some Time Later';-inkscape-font-specification:'Some Time Later';stroke-width:0.148254"
       id="B" />
    <path
       d="m 81.052745,11.443243 h 5.757339 c 0,0 0.440267,-7.9248077 -1.151468,-7.9586744 -1.625602,-0.033867 -8.873075,-0.3386669 -12.598412,1.2869346 -0.745068,0.3048003 -1.354668,1.1853345 -1.354668,1.9981353 0,0.067733 0,0.1693335 0,0.2370669 l 0.06773,7.7554736 c 0,0 -0.2032,8.636009 1.151468,10.36321 1.320801,1.727202 10.66801,1.964269 13.241879,2.032002 0,0 0,0 0,0 0.338667,0 0.643468,-0.3048 0.677334,-0.643467 l 0.541867,-6.299206 -6.400806,-0.575734 0.03387,3.352803 c 0,0 -0.06773,1.253068 -1.591735,1.253068 -1.388535,0 -2.675469,-0.338667 -2.980269,-1.286934 -0.338667,-0.982135 -0.203201,-7.281341 -0.203201,-7.281341 l 0.203201,-7.7216071 c 0,0 -0.135467,-1.6256015 1.930401,-1.6256015 2.032002,0 2.641603,0.7112007 2.67547,1.1853345 z"
       style="font-size:33.8667px;line-height:1.25;font-family:'Some Time Later';-inkscape-font-specification:'Some Time Later';stroke-width:0.148254"
       id="C" />
    <path
       d="M 102.07921,6.4309715 C 101.94374,5.7536375 101.33414,4.9408367 100.69067,4.6021697 99.336003,3.890969 96.626667,3.3152352 93.714131,3.450702 l -4.876805,0.2370668 0.169333,23.4357562 c 0,0 6.062139,-0.03387 8.669875,-0.372534 1.016001,-0.135467 2.573866,-0.609601 3.454406,-1.083734 0.94827,-0.440267 1.69333,-1.591735 1.69333,-2.641603 0.0339,-3.725337 0,-12.869346 -0.74506,-16.5946825 z m -2.540007,9.6520095 c -0.270934,3.89467 0,5.215471 -0.609601,6.096006 -0.4064,0.6096 -3.860804,0.4064 -3.860804,0.4064 V 8.8016404 c 0,0 3.318937,0.2370669 4.165604,0.6434673 0.541868,0.3048003 0.575734,2.7432023 0.304801,6.6378733 z"
       style="font-size:33.8667px;line-height:1.25;font-family:'Some Time Later';-inkscape-font-specification:'Some Time Later';stroke-width:0.148254"
       id="D" />
    <path
       d="M 104.51549,3.4168353 V 27.123525 l 12.05654,-0.812801 v -6.434673 h -7.24747 v -7.010407 h 4.60587 V 8.7000403 h -6.70561 V 6.261638 h 9.88908 V 3.4168353 Z"
       style="font-size:33.8667px;line-height:1.25;font-family:'Some Time Later';-inkscape-font-specification:'Some Time Later';stroke-width:0.148254"
       id="E" />
    <path
       d="m 118.67071,27.021925 4.3688,0.1016 V 16.286181 l 6.26534,0.1016 0.1016,-3.725337 h -4.84294 V 9.7837747 l 6.80721,0.2370673 0.44027,-6.6040067 h -13.14028 z"
       style="font-size:33.8667px;line-height:1.25;font-family:'Some Time Later';-inkscape-font-specification:'Some Time Later';stroke-width:0.148254"
       id="F" />
    <path
       d="m 146.80018,10.969109 -0.0677,-6.8410731 c 0,-0.2709336 -0.23707,-0.5418672 -0.54187,-0.5418672 -1.45627,-0.1016001 -5.588,-0.3386669 -8.09414,0.067733 -1.08373,0.1693335 -2.77707,0.5757339 -3.82694,0.9144009 -0.16933,0.067733 -0.33866,0.3048003 -0.33866,0.5080005 -0.1016,2.0997354 -0.6096,13.5128139 -0.67734,16.1205489 -0.0339,1.625602 0,2.844803 0.0339,3.623737 0.0339,0.508001 0.47413,1.083735 0.98213,1.253068 1.69334,0.609601 4.50427,1.049868 6.29921,1.049868 0.0339,0 0.1016,0 0.16933,0 3.69147,0.03387 6.90881,-0.169334 8.12801,-0.270934 0.27093,0 0.47413,-0.237067 0.47413,-0.508 0,0 0,0 0,0 l -0.47413,-10.498677 -5.89281,0.338667 c -0.27093,0 -0.47413,0.2032 -0.47413,0.474134 -0.0677,0.508 -0.1016,1.422401 -0.1016,2.065868 0.0339,0.440267 0.1016,1.083735 0.2032,1.490135 0.0677,0.169334 0.23707,0.3048 0.44027,0.3048 v 0 h 1.016 c 0,0 0.6096,-0.169333 0.57573,1.625602 0,0.778934 -0.0677,1.388535 -0.1016,1.794935 -0.0339,0.372534 -0.37253,0.677334 -0.77893,0.677334 0,0 -0.0339,0 -0.0339,0 l -3.2512,-0.135467 c -0.4064,-0.03387 -0.74507,-0.4064 -0.77894,-0.778934 -0.1016,-1.659468 -0.23706,-6.028272 -0.2032,-9.787476 0.0339,-2.675469 0.16934,-4.3010712 0.23707,-5.2154721 0.0677,-0.677334 0.13547,-1.2530678 1.28694,-1.1514677 h 0.1016 c 0.67733,0.067733 1.76106,0.2370669 2.40453,0.440267 0.33867,0.1016001 0.57574,0.4402671 0.57574,0.7789341 0,0.033867 0,0.067733 0,0.1016001 -0.0677,0.338667 -0.1016,0.9144009 -0.1016,1.2530686 0.0339,0.745067 0.3048,0.745067 0.3048,0.745067 z"
       style="font-size:33.8667px;line-height:1.25;font-family:'Some Time Later';-inkscape-font-specification:'Some Time Later';stroke-width:0.148254"
       id="G" />
    <path
       d="m 150.88377,26.954191 h 7.45067 v -6.333073 h 3.72534 v 6.502407 h 3.72533 L 165.04005,3.9925691 h -2.98027 V 15.57498 h -5.96054 V 3.890969 l -5.21547,-0.4741337 z"
       style="font-size:33.8667px;line-height:1.25;font-family:'Some Time Later';-inkscape-font-specification:'Some Time Later';stroke-width:0.148254"
       id="H" />
    <path
       d="m 166.1745,3.6461106 0.0701,4.9106094 1.64031,-5.521e-4 -0.21872,15.1738021 -1.48149,-0.01434 0.0665,2.824935 8.70251,0.402987 -0.0324,-5.064858 -1.36331,0.07585 -0.76028,-14.8625925 1.40207,0.017378 -0.019,-3.4833277 z"
       style="font-size:33.8667px;line-height:1.25;font-family:'Some Time Later';-inkscape-font-specification:'Some Time Later';stroke-width:0.148254"
       id="I" />
    <path
       d="m 178.37189,8.9371072 7.5184,-0.8466675 c 0,0 -0.37253,7.7893413 -0.54186,11.2437443 -0.2032,3.48827 -0.3048,4.470404 -0.77894,4.470404 -0.47413,0 -1.99813,-0.237067 -2.20133,-1.016001 -0.23707,-0.778934 0,-6.67174 0,-6.67174 l -7.14588,0.677334 c 0.3048,8.906942 1.4224,9.347209 1.9304,9.65201 0.67734,0.4064 1.72721,0.643467 6.70561,0.677334 2.77707,0.03387 4.33494,-0.237067 5.14774,-0.508001 0.47413,-0.135467 0.84667,-0.643467 0.84667,-1.117601 0.0677,-1.794935 0.2032,-6.637873 0.13546,-11.413077 -0.0339,-5.0461387 -0.27093,-9.1440093 -0.33866,-10.2954771 0,-0.2032002 -0.16934,-0.3725336 -0.37254,-0.3725336 0,0 0,0 0,0 h -10.90507 z"
       style="font-size:33.8667px;line-height:1.25;font-family:'Some Time Later';-inkscape-font-specification:'Some Time Later';stroke-width:0.148254"
       id="J" />
    <path
       d="m 191.69578,27.123525 3.31893,-0.846668 v -7.07814 l 3.89467,-0.880534 2.87867,8.669875 h 6.36694 l -6.8072,-9.550409 7.5184,-13.0048128 -5.04613,-1.0160009 -2.60774,8.9746757 h -3.18347 V 5.6181707 h -6.33307 z"
       style="font-size:33.8667px;line-height:1.25;font-family:'Some Time Later';-inkscape-font-specification:'Some Time Later';stroke-width:0.148254"
       id="K" />
    <path
       d="m 210.27961,3.4168353 0.74507,23.7066897 h 11.31147 v -6.637873 l -8.09414,1.524001 0.8128,-17.44135 z"
       style="font-size:33.8667px;line-height:1.25;font-family:'Some Time Later';-inkscape-font-specification:'Some Time Later';stroke-width:0.148254"
       id="L" />
    <path
       d="m 224.55072,10.528842 -0.44027,16.526949 h 4.60587 l -0.44027,-17.001083 0.94827,0.745068 3.31894,16.256015 h 1.25307 l 2.37066,-10.532543 1.18534,0.169333 -0.37253,10.430944 h 4.84293 L 241.247,3.4168353 h -4.97841 l -2.70933,13.7160127 -3.4544,-12.9709454 h -6.26534 v 5.9944054 z"
       style="font-size:33.8667px;line-height:1.25;font-family:'Some Time Later';-inkscape-font-specification:'Some Time Later';stroke-width:0.148254"
       id="M" />
    <path
       d="m 244.33787,9.1741741 -0.27093,17.9493509 3.48827,-0.1016 0.16933,-17.5090839 6.63787,17.3397499 5.31707,-0.4064 0.94827,-22.7245555 h -5.6896 V 15.812047 l -5.72348,-12.3952117 -5.9944,0.1354667 v 5.6218721 z"
       style="font-size:33.8667px;line-height:1.25;font-family:'Some Time Later';-inkscape-font-specification:'Some Time Later';stroke-width:0.148254"
       id="N" />
    <path
       d="m 52.807391,58.484088 c 0,0 -0.136478,-3.673644 -0.459785,-6.613636 -0.05085,-0.462437 -0.05061,-0.65789 0.0039,-0.735187 0.04205,-0.05963 0.941647,-0.116971 1.045335,-0.136163 -0.03079,-1.135456 -0.174853,-4.263687 -0.325184,-4.74544 -0.04289,-0.137455 -0.04297,-0.1366 -0.174419,-0.181622 -0.609004,-0.208582 -3.849966,-0.289046 -4.560247,-0.321828 -1.591735,-0.03387 -4.470404,0.1016 -4.470404,0.1016 l -4.064004,0.1016 c 0,0 -1.896535,-0.03387 -2.506136,1.253068 -0.609601,1.286935 -0.846668,10.227744 -0.846668,10.227744 0,0 -0.2032,9.889076 0.914401,10.97281 1.083735,1.117601 6.36694,0.982134 6.36694,0.982134 0,0 5.791205,0.508001 7.620007,-0.914401 1.862669,-1.388534 1.456268,-9.990676 1.456268,-9.990676 z m -6.434673,8.094141 c -0.541867,0.440267 -2.878669,0.406401 -2.878669,0.406401 0,0 -2.235202,0 -2.946403,-0.711201 -0.711201,-0.677334 -0.372534,-6.841073 -0.372534,-6.841073 0,0 0.169334,-6.46854 0.914401,-7.382941 0.711201,-0.880534 2.709336,-0.8128 2.709336,-0.8128 0,0 2.065869,0.237066 2.641603,1.117601 0.575734,0.914401 0.575734,4.809071 0.6096,7.58614 0.03387,2.743203 0.1016,6.028273 -0.677334,6.637873 z"
       style="font-size:33.8667px;line-height:1.25;font-family:'Some Time Later';-inkscape-font-specification:'Some Time Later';stroke-width:0.148254"
       id="O" />
    <path
       d="m 68.87026,56.113419 c -0.03387,-4.131737 0.03387,-6.502406 -0.508001,-7.58614 -0.541867,-1.083735 -1.727201,-2.269069 -3.048003,-2.438403 -1.286934,-0.2032 -6.129872,-0.4064 -7.78934,-0.3048 -0.880535,0.06773 -2.269069,0.270934 -3.08187,0.474134 v 23.198689 l 6.908807,-0.270934 v -4.842938 c 0,0 5.350938,-0.1016 6.129872,-0.914401 0.812801,-0.812801 1.456268,-3.183469 1.388535,-7.315207 z m -7.450674,5.249339 c -0.609601,0.508 -2.336802,0.4064 -3.149603,0.338667 -0.2032,-0.03387 -0.4064,-0.203201 -0.4064,-0.440267 0,0 0,0 0,0 l 0.4064,-12.632279 c 0,-0.2032 0.135467,-0.338667 0.3048,-0.338667 h 1.625602 c 0.03387,0 0.03387,0 0.03387,0 0.474133,0 0.982134,0.372533 1.117601,0.846667 0.3048,0.982134 0.6096,2.98027 0.643467,6.637873 0.06773,4.538138 0.237067,4.910672 -0.575734,5.588006 z"
       style="font-size:33.8667px;line-height:1.25;font-family:'Some Time Later';-inkscape-font-specification:'Some Time Later';stroke-width:0.148254"
       id="P" />
    <path
       d="m 84.605045,65.359028 c 0,0 0.372534,-7.653874 0.1016,-11.853345 -0.1016,-1.727201 -0.541867,-4.538137 -0.948268,-6.231472 -0.135466,-0.575734 -0.745067,-1.151468 -1.354668,-1.286935 -1.151467,-0.2032 -3.081869,-0.4064 -4.233337,-0.4064 -0.1016,0 -0.270934,0 -0.372534,0 -3.217336,0.06773 -4.470404,0.4064 -5.012271,0.677334 -0.2032,0.1016 -0.575734,0.338667 -0.778934,0.508 -0.237067,0.2032 -0.508001,0.609601 -0.575734,0.914401 -0.541867,2.675469 -0.982134,7.07814 -0.982134,9.821343 0,0.1016 0,0.3048 0,0.440267 0,5.113872 0,8.263475 0.135466,9.516542 0.03387,0.372534 0.338667,0.812801 0.677334,0.982135 0.846668,0.372533 2.302936,0.677334 3.251203,0.677334 0.169334,0 0.440268,-0.03387 0.575734,-0.03387 2.032002,-0.135467 5.249339,-0.643467 7.213607,-1.117601 1.964269,-0.474134 4.402671,1.761068 4.707472,1.354668 0.3048,-0.4064 -0.982135,-2.472269 -2.404536,-3.962404 z m -2.540003,-0.440267 c -0.1016,0.474134 -0.541867,0.948268 -1.016001,1.083734 -0.440267,0.135467 -1.185334,0.270934 -1.659468,0.270934 -0.03387,0 -0.03387,0 -0.03387,0 -0.6096,-0.06773 -1.557868,-0.270934 -2.099735,-0.474134 -0.270933,-0.1016 -0.541867,-0.4064 -0.575734,-0.677334 -0.135467,-0.677334 -0.135467,-2.269069 -0.169333,-6.366939 -0.06773,-4.267204 0.4064,-6.028273 0.745067,-6.705607 0.135467,-0.270933 0.474134,-0.474133 0.745068,-0.474133 v 0 h 2.810936 c 0.338667,0 0.7112,0.270933 0.778934,0.643467 0.237067,0.914401 0.440267,3.014136 0.643467,7.07814 0.169333,3.149603 0.03387,4.775205 -0.169334,5.621872 z"
       style="font-size:33.8667px;line-height:1.25;font-family:'Some Time Later';-inkscape-font-specification:'Some Time Later';stroke-width:0.148254"
       id="Q" />
    <path
       d="m 99.227522,60.177423 c 0.508001,-0.338667 1.083738,-1.083734 1.320798,-1.625601 0.508,-1.219202 0.7112,-3.623737 0.67734,-6.434673 -0.0339,-2.810936 -0.54187,-4.572005 -1.727204,-5.317072 -0.948268,-0.643467 -2.235202,-0.982134 -3.89467,-1.049868 -1.625602,-0.03387 -7.823208,0.440267 -7.823208,0.440267 0.237067,1.794935 0.474134,4.741338 0.474134,6.57014 0,0.169334 0,0.474134 0,0.643467 -0.03387,4.301071 -0.609601,14.698148 -0.609601,14.698148 l 3.522137,0.1016 v -6.604006 h 3.352803 l 1.659468,7.857074 6.400811,-0.338667 z m -0.948267,-6.908806 c 0,0.06773 0,0.169333 0,0.270933 0,1.016001 -0.135467,2.709336 -0.304801,3.725337 -0.06773,0.440267 -0.508,0.812801 -0.948267,0.812801 0,0 -0.03387,0 -0.03387,0 l -3.48827,-0.06773 0.1016,-9.956809 3.556004,0.06773 c 0.338667,0 0.677334,0.270934 0.778934,0.609601 0.2032,1.049867 0.372533,2.777069 0.372533,3.860804 0,0.169333 -0.03387,0.474133 -0.03387,0.677334 z"
       style="font-size:33.8667px;line-height:1.25;font-family:'Some Time Later';-inkscape-font-specification:'Some Time Later';stroke-width:0.148254"
       id="R" />
    <path
       d="m 118.85063,46.833944 c -1.96427,-0.474134 -5.21547,-0.914401 -7.24748,-1.016001 -1.96426,-0.1016 -4.84293,-0.237067 -6.23147,1.456268 -2.77707,3.420536 -1.18533,8.771475 2.50614,10.532543 1.04986,0.474134 2.1336,0.914401 3.18347,1.354668 1.15146,0.508001 3.1496,0.982134 3.72533,2.269069 1.18534,2.675469 -2.54,3.014136 -4.1656,2.98027 -2.26907,-0.06773 -4.19947,-0.711201 -6.23147,-1.727202 l -0.33867,6.807206 c 3.11574,-0.06773 6.23147,-0.1016 9.34721,-0.237066 3.62374,-0.169334 6.77334,-2.065869 6.06214,-6.231473 -0.6096,-3.556004 -3.62374,-4.876805 -6.60401,-6.163739 -1.3208,-0.575734 -3.048,-1.049868 -4.23334,-1.930402 -1.524,-1.151468 -0.94826,-3.420537 0.84667,-3.962404 2.9464,-0.880534 6.67174,1.286935 9.24561,2.506136 z"
       style="font-size:33.8667px;line-height:1.25;font-family:'Some Time Later';-inkscape-font-specification:'Some Time Later';stroke-width:0.148254"
       id="S" />
    <path
       d="m 125.21598,52.896083 -0.57573,16.560816 4.80907,-0.575734 -0.6096,-17.746151 7.28134,0.609601 v -5.994406 h -15.10455 v 7.145874 z"
       style="font-size:33.8667px;line-height:1.25;font-family:'Some Time Later';-inkscape-font-specification:'Some Time Later';stroke-width:0.148254"
       id="T" />
    <path
       d="m 142.05566,49.272346 -4.43653,-1.151468 0.27093,17.780017 c 0.0677,0.812801 0.64347,1.862669 1.28693,2.336803 1.1176,0.8128 3.69147,1.286934 4.50427,1.253067 h 3.86081 c 0,0 2.20133,0 3.92854,-0.846667 1.7272,-0.846668 1.86266,-3.759204 1.86266,-3.759204 V 45.784076 l -5.7912,0.643467 v 17.23815 c 0,0 0.0677,1.456268 -0.74507,1.862669 -0.64347,0.2032 -1.69333,0.4064 -2.3368,0.4064 -1.28694,0 -2.30294,-0.169333 -2.3368,-1.016001 0,-0.541867 -0.0677,-15.646415 -0.0677,-15.646415 z"
       style="font-size:33.8667px;line-height:1.25;font-family:'Some Time Later';-inkscape-font-specification:'Some Time Later';stroke-width:0.148254"
       id="U" />
    <path
       d="m 159.11496,68.711831 7.48454,0.778934 c 0,0 1.38854,-4.605871 2.26907,-8.128007 0.9144,-3.556004 2.91254,-14.190147 2.91254,-14.190147 l -2.98027,-1.388535 c 0,0 -1.25307,7.145874 -2.54001,13.512813 -1.28693,6.366939 -1.524,5.418672 -1.524,5.418672 0,0 -0.4064,0.508 -1.3208,-1.930402 -0.88053,-2.472269 -2.8448,-15.714148 -2.8448,-15.714148 l -5.65574,0.3048 z"
       style="font-size:33.8667px;line-height:1.25;font-family:'Some Time Later';-inkscape-font-specification:'Some Time Later';stroke-width:0.148254"
       id="V" />
    <path
       d="m 173.17176,45.851809 c 0,0 1.79494,18.626685 2.3368,21.200554 0.23707,1.185335 0.9144,1.794935 1.28694,1.930402 0.37253,0.135467 4.19947,0.237067 4.2672,0.1016 0.84667,-1.219201 1.8288,-8.297341 1.8288,-8.297341 h 1.86267 c 0,0 1.08374,6.163739 1.76107,7.38294 0.64347,1.253068 1.49013,1.253068 1.49013,1.253068 l 3.31894,0.03387 c 0,0 1.3208,1.049867 3.1496,-23.300289 h -4.74133 c 0,0 0.44026,14.35948 0,16.730149 -0.1016,0.609601 -1.65947,0.474134 -1.82881,0.135467 -0.77893,-1.320801 -0.84666,-14.596547 -0.84666,-14.596547 h -7.85708 l 0.37254,15.307748 h -3.01414 L 176.0843,45.750209 Z"
       style="font-size:33.8667px;line-height:1.25;font-family:'Some Time Later';-inkscape-font-specification:'Some Time Later';stroke-width:0.148254"
       id="W" />
    <path
       d="m 202.15688,56.790753 -7.62001,12.395212 h 8.26348 l 2.9464,-4.944538 1.6256,4.944538 5.18161,0.270934 -5.55414,-9.922943 5.92667,-8.906942 -4.572,-4.301071 -3.45441,7.247474 -4.33493,-7.823208 -4.19948,0.372534 z"
       style="font-size:33.8667px;line-height:1.25;font-family:'Some Time Later';-inkscape-font-specification:'Some Time Later';stroke-width:0.148254"
       id="X" />
    <path
       d="m 219.12358,63.80116 v 5.655739 h 6.16374 l -0.508,-5.655739 c 0,0 2.7432,0 3.42053,-0.508001 0.67734,-0.474133 1.016,-0.643467 1.28694,-3.048002 0.23706,-2.438403 0.4064,-8.432809 0.2032,-10.36321 l -0.44027,-3.894671 -6.16374,-0.237067 c 0,0 0.7112,3.014137 1.04987,4.775205 0.33867,1.761068 1.28693,7.17974 1.08373,9.448809 -0.2032,2.235202 -1.4224,2.336802 -1.4224,2.336802 -0.47413,0.135467 -1.28693,0.237067 -1.76107,0.237067 -0.2032,0 -0.47413,0 -0.67733,-0.03387 -1.1176,-0.169333 -2.47227,-0.541867 -2.8448,-1.185334 -0.33867,-0.643467 -0.0677,-5.350939 0.16933,-7.450674 0.13547,-1.490135 0.57573,-3.826937 0.9144,-5.249338 0.1016,-0.406401 0.37254,-0.982135 0.6096,-1.320802 l -5.45254,0.06773 c -0.27093,1.490135 -0.44026,3.962404 -0.44026,5.486405 0,0.541867 0,1.456268 0.0339,1.998135 0.3048,3.657604 0.8128,6.807207 1.2192,7.382941 0.3048,0.508 0.98214,1.016001 1.55787,1.117601 0.54187,0.169333 1.4224,0.372534 1.99814,0.440267 z"
       style="font-size:33.8667px;line-height:1.25;font-family:'Some Time Later';-inkscape-font-specification:'Some Time Later';stroke-width:0.148254"
       id="Y" />
    <path
       d="m 231.24786,45.750209 0.54186,5.249339 10.80348,0.677334 v 1.219201 L 232.33159,63.80116 v 5.655739 h 15.61255 l -0.77894,-6.87494 -10.46481,1.422401 8.22961,-8.669875 0.44027,-9.347209 z"
       style="font-size:33.8667px;line-height:1.25;font-family:'Some Time Later';-inkscape-font-specification:'Some Time Later';stroke-width:0.148254"
       id="Z" />
    <path
       d="m 54.399126,101.05453 c -0.03387,-2.099736 -1.049868,-9.482677 -2.980269,-11.345345 -2.099736,-2.065869 -6.739474,-1.794935 -6.739474,-1.794935 0,0 -4.707471,0.06773 -6.062139,1.320801 -1.354668,1.253068 -2.438402,6.299206 -2.133602,12.158149 0.3048,5.85894 0.914401,7.112 1.557868,7.85707 0.643468,0.74507 2.506136,2.54 6.231473,2.50614 3.69147,-0.0677 6.129873,-1.15147 8.026408,-3.38667 1.930402,-2.20134 2.133602,-5.18161 2.099735,-7.31521 z m -7.992541,8.29734 c -0.270934,0.0677 -1.083734,-0.13547 -1.524001,-0.64347 -0.270934,-0.33866 -0.643468,-0.9144 -0.812801,-1.3208 -0.237067,-0.64347 -1.388535,-8.466673 -1.456268,-9.042407 -0.06773,-0.575734 -0.778934,-6.77334 -0.06773,-7.416807 0.711201,-0.643467 2.032002,-0.609601 2.032002,-0.609601 0,0 1.659469,-0.03387 2.032002,0.541868 0.406401,0.541867 1.219201,2.878669 1.422402,8.805341 0.2032,5.926676 0.135466,9.042406 -1.625602,9.685876 m -0.7,-8 c 0.404501,-0.0566 0.837311,-0.51657 0.911573,-1.363971 0.05515,-0.629357 -0.231416,-3.892318 -0.363833,-4.243432 -0.191247,-0.507114 -2.000186,-0.482867 -2.087323,0.08152 -0.145896,0.944966 0.09236,3.813661 0.265256,4.307653 0.318623,0.91036 0.869827,1.27482 1.274327,1.21823 z"
       style="font-size:33.86670000000000158px;line-height:1.25;font-family:'Some Time Later';-inkscape-font-specification:'Some Time Later';display:inline;stroke-width:0.148254;fill:#000000"
       id="0" />
    <path
       d="m 56.224135,97.198576 2.748617,-3.922979 c -0.03629,2.070662 -1.125732,8.674303 -1.703206,12.891053 l -1.693889,-0.0292 c -0.208955,1.55609 -0.241078,5.64971 -0.241078,5.64971 l 8.457068,0.0162 -0.0053,-3.7202 -1.291132,0.004 c 0.07258,-2.32267 0.203193,-4.95545 0.240932,-7.5406 0.06773,-4.639743 0.812801,-12.632284 0.812801,-12.632284 l -4.495506,0.531283 -2.69098,3.878692 z"
       style="font-size:33.8667px;line-height:1.25;font-family:'Some Time Later';-inkscape-font-specification:'Some Time Later';fill:#000000;stroke-width:0.148254"
       id="1" />
    <path
       d="m 65.057081,94.721456 c 0,0 4.064004,-0.914401 7.07814,-1.049867 3.014137,-0.169334 4.097871,0.914401 4.097871,0.914401 l -9.685876,10.22774 v 6.97654 l 16.493082,-2.3368 1.862669,-6.02827 c 0,0 -1.557868,0.54187 -3.420537,1.016 -1.828801,0.44027 -7.349073,0.84667 -8.466674,0.44027 -1.117602,-0.37254 -1.354668,-0.98214 -1.354668,-0.98214 l 9.652009,-9.00854 c 0,0 -0.914401,-3.28507 -1.354668,-4.334938 -0.270934,-0.643467 -1.049868,-1.456268 -1.693335,-1.761068 -0.474134,-0.270934 -2.912536,-0.880534 -5.181605,-0.880534 -2.302936,0 -6.36694,1.185334 -6.36694,1.185334 z"
       style="font-size:33.86670000000000158px;line-height:1.25;font-family:'Some Time Later';-inkscape-font-specification:'Some Time Later';stroke-width:0.148254;fill:#000000"
       id="2" />
    <path
       d="m 88.420338,88.693184 -1.998135,6.77334 c 1.727202,-0.474134 4.470404,-1.422402 6.129873,-2.099736 2.472269,-0.982134 4.842938,-1.117601 5.825072,-1.016001 0,0 0,0 0,0 0.2032,0 0.338667,0.135467 0.338667,0.304801 0,0.1016 -0.1016,0.2032 -0.169334,0.270933 -1.219201,0.643468 -4.064004,2.099736 -4.673604,2.472269 -0.575734,0.372534 -2.404536,1.896535 -3.28507,2.607736 -0.06773,0.06773 -0.135467,0.2032 -0.135467,0.3048 0,0.203201 0.169334,0.372534 0.338667,0.372534 1.591735,0.406401 5.350939,1.185335 5.655739,2.1336 0.338667,1.18534 1.727202,4.30107 -2.302936,4.57201 -4.030137,0.3048 -7.653874,-1.35467 -7.653874,-1.35467 l 3.522137,7.31521 c 4.267204,0.8128 8.873075,0.27093 10.735747,-1.04987 1.8288,-1.3208 3.21733,-2.60774 2.70933,-6.57014 -0.37253,-3.21734 -5.080002,-6.129874 -6.671737,-7.078142 -0.06773,-0.03387 -0.135467,-0.135467 -0.135467,-0.2032 0,-0.135467 0.1016,-0.237067 0.237067,-0.270934 l 4.978407,-0.9144 c 0.33866,-0.03387 0.67733,-0.338667 0.74507,-0.643468 0.64346,-3.725337 0.4064,-5.012271 -0.71121,-5.858939 -1.18533,-0.914401 -4.538133,-0.778934 -6.604002,-0.846667 -2.065868,-0.03387 -6.87494,0.778934 -6.87494,0.778934 z"
       style="font-size:33.8667px;line-height:1.25;font-family:'Some Time Later';-inkscape-font-specification:'Some Time Later';stroke-width:0.148254"
       id="3" />
    <path
       d="m 105.17536,89.201184 v 12.530676 c 0,0 -0.0677,2.77707 0.9144,3.96241 0.94827,1.2192 4.16561,0.84666 6.43468,0.47413 l -1.32081,5.82507 h 8.63601 v -5.3848 l 4.70747,-1.08374 v -2.6416 l -4.13173,0.33867 1.89653,-12.598414 c 0,0 -2.26907,-0.948268 -6.23147,-0.914401 0,0 -0.67734,8.703742 -1.04987,11.684015 -0.0677,0.37253 -0.1016,1.38853 -0.44027,1.49013 -0.67733,0.2032 -3.72533,1.28694 -4.60587,0.64347 -0.9144,-0.6096 0.8128,-6.129874 1.55787,-8.02641 0.98214,-2.438402 1.89654,-7.58614 1.89654,-7.58614 z"
       style="font-size:33.8667px;line-height:1.25;font-family:'Some Time Later';-inkscape-font-specification:'Some Time Later';stroke-width:0.148254"
       id="4" />
    <path
       d="m 127.70148,102.23986 c 0,0 8.60214,-0.13546 9.61814,0.84667 0.98213,0.98214 0.7112,2.98027 0.16933,3.556 -0.54187,0.57574 -1.2192,1.01601 -3.6576,1.01601 -2.4384,0 -7.72161,-1.62561 -7.72161,-1.62561 l 3.4544,5.85894 c 7.68775,-0.0677 14.22402,-1.49013 15.54482,-3.556 1.3208,-2.032 2.6416,-5.41867 -0.84667,-8.02641 -3.48827,-2.641601 -13.61441,-2.573867 -13.61441,-2.573867 -0.0677,-5.858939 -0.88054,-5.689606 2.032,-5.080005 2.87867,0.6096 8.09414,3.318936 8.09414,3.318936 l 0.64347,-7.552274 c 0,0 -0.74507,-0.1016 -3.82694,-0.270933 -3.11573,-0.135467 -9.88907,-0.237067 -9.88907,-0.237067 z"
       style="font-size:33.8667px;line-height:1.25;font-family:'Some Time Later';-inkscape-font-specification:'Some Time Later';stroke-width:0.148254"
       id="5" />
    <path
       d="m 166.76619,97.396926 c -0.88054,-1.151468 -2.77707,-1.761069 -5.52027,-2.167469 -2.77707,-0.372534 -5.45254,1.083734 -5.45254,1.083734 -1.524,-3.48827 3.62373,-8.398941 3.62373,-8.398941 l -6.53627,0.7112 c -0.7112,0.575734 -1.76107,1.625602 -2.3368,2.302936 -1.016,1.253068 -3.62374,7.484541 -1.99814,13.174144 1.59174,5.68961 3.25121,7.21361 8.63601,7.55228 5.38481,0.33866 7.62001,-0.67734 8.97468,-4.60588 1.6256,-4.63973 1.524,-8.500537 0.6096,-9.652004 z m -6.53628,3.014134 -0.8128,6.84108 c -0.13546,0.84666 -1.18533,1.45626 -2.30293,1.3208 l -2.8448,-0.37254 c -1.21921,-0.27093 -2.09974,-1.1176 -2.06587,-2.09973 l 0.27093,-5.31707 c 0.0339,-0.812805 0.84667,-1.490139 1.9304,-1.557873 h 4.36881 c 0.84666,-0.03387 1.524,0.541868 1.45626,1.185333 z"
       style="font-size:33.8667px;line-height:1.25;font-family:'Some Time Later';-inkscape-font-specification:'Some Time Later';stroke-width:0.148254"
       id="6" />
    <path
       d="m 168.97229,96.211591 c 0,0 0.67733,0.2032 5.48641,-2.235202 4.80907,-2.438402 6.97654,-1.930402 6.97654,-1.930402 -2.03201,5.520272 -11.31148,19.033083 -11.31148,19.033083 0,0 2.09973,0.47414 3.28507,0.67734 1.04987,0.16933 3.99627,0.0339 3.99627,0.0339 l 8.70374,-22.927753 c 0,0 -4.9784,-0.948267 -8.50054,-0.948267 -3.55601,0 -8.63601,0.4064 -8.63601,0.4064 z"
       style="font-size:33.8667px;line-height:1.25;font-family:'Some Time Later';-inkscape-font-specification:'Some Time Later';stroke-width:0.148254"
       id="7" />
    <path
       d="m 205.47318,100.10626 c -0.77894,-0.304799 -1.96427,-0.914399 -2.67547,-1.3208 -0.0677,-0.03387 -0.1016,-0.135467 -0.1016,-0.169333 0,-0.06773 0.0339,-0.135467 0.0677,-0.169334 1.89654,-1.591735 2.47227,-2.844802 2.60774,-3.623737 0.1016,-0.745067 0.23706,-2.980269 -2.6416,-5.113871 -3.31894,-2.472269 -8.60215,-2.269069 -11.75175,-0.06773 -3.11574,2.201336 -3.9624,6.87494 -3.01414,8.297342 0.8128,1.219201 3.35281,2.133593 4.16561,2.438403 0.0339,0 0.1016,0.0677 0.1016,0.1016 0,0.0339 -0.0339,0.1016 -0.0677,0.1016 -0.8128,0.508 -3.48827,2.20133 -3.62373,3.11573 -0.508,3.52214 2.4384,6.40081 3.2512,6.84107 0.77894,0.47414 1.6256,1.11761 5.68961,1.28694 4.09787,0.2032 7.04427,-2.47227 8.66987,-5.62187 1.6256,-3.18347 1.016,-5.35094 -0.67733,-6.09601 z m -6.43468,2.7432 -0.4064,4.06401 c -0.0677,0.508 -0.54186,0.88053 -1.04986,0.88053 -0.0339,0 -0.0677,0 -0.1016,0 l -4.09787,-0.33866 c -0.57574,-0.1016 -1.08374,-0.64347 -1.08374,-1.21921 0,-0.0339 0,-0.0677 0.0339,-0.1016 l 0.54187,-3.7592 c 0.0339,-0.27093 0.3048,-0.508 0.57573,-0.508 0,0 0,0 0.0339,0 l 5.01227,0.3048 c 0.3048,0.0339 0.54186,0.3048 0.54186,0.6096 0,0.0339 0,0.0677 0,0.0677 z m 1.35467,-5.080001 -3.556,0.169334 c -0.0339,0 -0.0339,0 -0.0339,0 -0.27093,0 -0.54186,-0.237067 -0.6096,-0.508001 l -0.64347,-4.707471 c 0,-0.03387 0,-0.1016 0,-0.135467 0,-0.575734 0.50801,-1.117601 1.08374,-1.151467 l 3.72534,-0.270934 c 0,0 0.0339,0 0.0339,0 0.23707,0 0.44027,0.169333 0.47414,0.440267 l 0.27093,5.418672 c 0,0.4064 -0.33867,0.745067 -0.74507,0.745067 z"
       style="font-size:33.8667px;line-height:1.25;font-family:'Some Time Later';-inkscape-font-specification:'Some Time Later';stroke-width:0.148254"
       id="8" />
    <path
       d="m 223.90142,89.404385 c -1.04987,-0.778935 -10.39707,-3.217337 -13.03868,0.643467 -2.6416,3.860804 -2.47227,12.496808 -1.9304,13.072548 0.57573,0.54186 3.048,2.032 6.12987,2.06587 2.06587,0 4.40267,-1.3208 5.35094,-1.82881 0.0339,-0.0339 0.1016,-0.0339 0.13547,-0.0339 0.1016,0 0.2032,0.1016 0.2032,0.23706 0,0.0339 0,0.0677 -0.0339,0.1016 -0.54187,0.81281 -1.524,1.99814 -2.20133,2.67547 -1.08374,1.04987 -2.94641,2.43841 -2.94641,2.43841 l 2.20134,2.77707 c 1.86267,-0.0677 4.53814,-1.01601 5.9944,-2.13361 1.21921,-1.016 3.01414,-2.87867 3.18347,-9.584272 0.16934,-6.536273 -2.16746,-9.821343 -3.048,-10.430943 z m -2.37067,7.992541 -5.588,5.046134 c -0.16934,0.13547 -1.04987,0.23707 -1.18534,0.0339 -0.1016,-0.16933 -0.23706,-0.47413 -0.27093,-0.67733 -0.4064,-1.65947 -0.0677,-6.874943 -0.0677,-6.874943 0,-0.406401 0.2032,-0.982135 0.44026,-1.286935 l 2.94641,-3.18347 c 0.16933,-0.2032 0.54186,-0.372533 0.8128,-0.372533 0.27093,0 0.64346,0.169333 0.8128,0.372533 l 2.67547,3.623737 c 0.54186,0.778934 0.1016,2.641603 -0.57574,3.318937 z"
       style="font-size:33.8667px;line-height:1.25;font-family:'Some Time Later';-inkscape-font-specification:'Some Time Later';stroke-width:0.148254"
       id="9" />
    <path
       d="m 50.233522,149.89031 c 0,-1.28694 -0.609601,-8.33121 -0.982134,-9.51654 -0.338667,-1.2192 -1.016001,-2.16747 -1.693335,-2.40454 -0.677334,-0.27093 -4.809071,-0.27093 -4.809071,-0.27093 0,0 -4.910672,-0.0339 -5.588006,1.15147 -0.677334,1.2192 -1.049868,2.7432 -0.575734,3.9624 0.372534,0.98213 3.38667,0.77893 4.673605,0.67733 0.237067,-0.0339 0.4064,-0.23706 0.4064,-0.47413 0,-0.0339 0,-0.1016 0,-0.13547 -0.1016,-0.4064 -0.135467,-0.94826 0.3048,-1.15147 0.745068,-0.37253 3.352804,-0.74506 3.826937,-0.2032 0.508001,0.54187 0.711201,3.58987 0.711201,3.58987 0,0 -7.958674,0.57574 -8.568275,0.81281 -0.575734,0.27093 -0.948267,1.3208 -0.846667,3.58987 0.135467,2.26906 0.1016,2.91253 0.846667,3.556 0.677334,0.57573 6.062139,0.23707 7.247474,0.16933 0,0 0.03387,0 0.03387,0 0.1016,0 0.2032,0.0677 0.237066,0.2032 l 0.03387,0.44027 c 0.03387,0.2032 0.2032,0.33867 0.406401,0.33867 0,0 0,0 0.03387,0 0.880534,-0.0677 2.302936,-0.37254 3.115737,-0.67734 1.659468,-0.67733 1.185334,-2.3368 1.185334,-3.6576 z m -5.892806,1.4224 c -1.693335,-0.0339 -1.794935,-0.74507 -1.930401,-2.70934 -0.135467,-1.9304 2.370668,-2.16746 2.370668,-2.16746 0.135467,0 0.338667,0 0.474134,0 0.237067,0 0.643468,0 0.914401,0.0339 0.846668,0.0677 1.354668,0.57574 1.354668,2.84481 0,2.26906 -1.524001,1.99813 -3.18347,1.99813 z"
       style="font-size:33.8667px;line-height:1.25;font-family:'Some Time Later';-inkscape-font-specification:'Some Time Later';stroke-width:0.148254"
       id="a" />
    <path
       d="m 67.408172,142.60897 c 0,-0.47413 -0.372534,-1.1176 -0.778934,-1.4224 -0.508001,-0.33867 -1.456268,-0.64347 -2.065869,-0.7112 -3.420536,-0.4064 -6.739473,1.15146 -6.739473,1.15146 l 0.609601,-11.24374 -6.705607,1.28694 0.643467,21.26828 c 0,0 1.693335,1.35467 7.247474,1.25307 5.554139,-0.0677 6.299206,-0.67733 7.315207,-2.50614 0.609601,-1.08373 0.508001,-7.14587 0.474134,-9.07627 z m -9.95681,7.95867 c -2.167468,-0.0339 -2.302935,-0.9144 -2.472269,-3.38667 -0.169333,-2.4384 3.08187,-2.7432 3.08187,-2.7432 0.169333,0 0.440267,-0.0339 0.609601,-0.0339 0.3048,0 0.846667,0.0339 1.185334,0.0677 1.117601,0.1016 1.794935,0.74506 1.794935,3.58987 0,2.8448 -1.998135,2.54 -4.199471,2.50613 z"
       style="font-size:33.8667px;line-height:1.25;font-family:'Some Time Later';-inkscape-font-specification:'Some Time Later';stroke-width:0.148254"
       id="b" />
    <path
       d="m 77.392498,138.03696 c -0.440267,-0.0677 -1.151468,-0.13546 -1.591735,-0.13546 -0.440267,0 -1.151467,0.0677 -1.591735,0.13546 -1.049867,0.2032 -2.336802,0.54187 -3.115736,1.18534 -1.083734,0.94827 -1.828802,3.62374 -2.099735,7.51841 -0.237067,3.89467 0.3048,5.9944 0.812801,6.53627 0.541867,0.508 2.844802,0.7112 4.368804,0.7112 1.557868,0.0339 9.381075,-1.15147 9.381075,-1.15147 l -0.270933,-3.92853 h -4.436538 c 0,0 -0.06773,1.35466 -0.508,1.8288 -0.440267,0.508 -3.69147,1.04986 -3.962404,0.64346 -0.237067,-0.44026 -0.440267,-4.80907 -0.237067,-7.0104 0.237067,-2.20134 1.185335,-4.33494 2.235202,-4.33494 1.049868,0 3.18347,1.65947 3.217337,2.40454 -0.03387,0.6096 -0.203201,1.55786 -0.440267,2.1336 l 4.470404,1.28693 c 0,0 0.508,-6.4008 -2.336802,-7.04427 -1.524002,-0.33867 -2.912537,-0.6096 -3.894671,-0.77894 z"
       style="font-size:33.8667px;line-height:1.25;font-family:'Some Time Later';-inkscape-font-specification:'Some Time Later';stroke-width:0.148254"
       id="c" />
    <path
       d="m 94.106244,131.12816 0.270934,6.9088 c 0,0 -2.743203,0.98214 -4.199471,1.35467 -1.422401,0.33867 -3.420536,1.49014 -4.470404,2.54001 -0.541867,0.57573 -0.677334,2.70933 -0.541867,5.14773 0.135467,2.43841 1.016001,5.28321 1.828802,6.19761 0.846667,0.94827 6.773339,0.84667 6.773339,0.84667 l 5.249339,-0.23707 c 0.778934,-0.16933 1.422404,-0.94827 1.422404,-1.7272 0,0 0,-0.0339 -0.0339,-0.0339 l 0.23707,-21.74242 z m 4.267204,17.88162 c -0.03387,1.89653 -1.828801,2.81093 -2.641602,2.8448 -1.016001,0 -2.438402,-0.6096 -3.18347,-1.28694 -0.914401,-0.94826 -0.6096,-3.62373 -0.6096,-3.62373 0.3048,-1.79494 1.185334,-5.62188 2.607735,-5.62188 1.016001,0 2.77707,1.86267 3.28507,3.14961 0.508001,1.28693 0.609601,2.6416 0.541867,4.53814 z"
       style="font-size:33.8667px;line-height:1.25;font-family:'Some Time Later';-inkscape-font-specification:'Some Time Later';stroke-width:0.148254"
       id="d" />
    <path
       d="m 116.01483,139.6287 c -0.37254,-0.4064 -1.04987,-0.98213 -1.52401,-1.28694 -0.33866,-0.2032 -0.9144,-0.4064 -1.28693,-0.44026 -0.7112,-0.0677 -1.9304,-0.16934 -3.42054,-0.2032 -2.37067,-0.0339 -4.6736,0.16933 -5.82507,1.3208 -1.15147,1.1176 -1.55787,1.9304 -1.65947,4.33494 -0.1016,2.40453 0,7.62 0,7.62 0.0677,0.67734 0.54187,1.55787 1.1176,1.93041 1.38854,0.9144 2.87867,0.98213 5.45254,0.98213 2.57387,0 5.96054,0.2032 6.77334,-0.74507 0.47414,-0.508 1.15147,-1.6256 1.04987,-4.70747 l -5.24934,0.2032 c 0,0 0.2032,0.67734 -0.37253,0.94827 -0.57574,0.3048 -1.28694,0.37253 -2.40454,0.3048 -1.1176,-0.0677 -2.26907,0.13547 -3.048,-0.84667 -0.54187,-0.64347 -0.47413,-1.7272 -0.47413,-1.7272 l 7.14587,-0.33867 c 0,0 2.57387,-0.0339 3.6576,-0.77893 1.08374,-0.7112 1.2192,-0.7112 1.25307,-2.26907 0,-1.55787 -0.13547,-3.048 -1.18533,-4.30107 z m -4.97841,5.41867 c -0.2032,0.33867 -0.67733,0.6096 -1.08373,0.64347 -0.37254,0.0339 -3.99627,0.47413 -5.31708,0.44027 -0.33866,-0.0339 -0.57573,-0.23707 -0.57573,-1.25307 0,-0.0339 0,-0.1016 0,-0.16934 0,-0.47413 0.1016,-1.2192 0.2032,-1.69333 0.2032,-0.67733 0.9144,-1.3208 1.6256,-1.45627 0.508,-0.1016 1.3208,-0.16933 1.86267,-0.16933 0.6096,0 1.6256,0.1016 2.26907,0.23706 0.47413,0.13547 1.04987,0.60961 1.2192,1.08374 0.13547,0.23707 0.2032,0.67733 0.2032,0.98213 0,0.4064 -0.16933,1.016 -0.4064,1.35467 z"
       style="font-size:33.8667px;line-height:1.25;font-family:'Some Time Later';-inkscape-font-specification:'Some Time Later';stroke-width:0.148254"
       id="e" />
    <path
       d="m 119.4142,154.08978 h 4.50427 v -7.17974 h 4.064 v -2.47227 h -6.84107 v -8.06027 c 0,0 0.0339,-1.52401 1.2192,-1.52401 0.6096,0.0339 1.35467,0.50801 1.65947,1.08374 h 4.7752 v -5.65574 c 0,0 -7.11201,0.8128 -8.36507,1.38854 -1.25307,0.57573 -1.82881,0.74506 -1.82881,1.18533 0,0.4064 0.81281,21.23442 0.81281,21.23442 z"
       style="font-size:33.8667px;line-height:1.25;font-family:'Some Time Later';-inkscape-font-specification:'Some Time Later';stroke-width:0.148254"
       id="f" />
    <path
       d="m 141.21588,138.47723 -3.92853,-0.37253 c -0.3048,-0.0339 -0.74507,-0.1016 -1.04987,-0.1016 -1.7272,0 -3.82694,1.25307 -4.60587,2.81093 -0.77894,1.59174 -1.38854,4.30107 -1.38854,6.09601 0,4.03014 1.6256,5.38481 3.92854,5.48641 2.3368,0.0677 7.07814,0 7.07814,0 v 5.9944 c 0,0 -0.0339,1.4224 -0.508,1.9304 -0.508,0.47414 -2.37067,0.44027 -3.048,-0.1016 -0.67734,-0.508 0.9144,-2.7432 0.9144,-2.7432 l -6.84108,-1.65947 c 0,0 -0.98213,0.23707 -1.016,2.98027 -0.0339,2.7432 0,4.43654 0.9144,5.24934 0.9144,0.8128 13.74988,-0.74507 14.12242,-2.032 0.37253,-1.3208 0.54186,-14.25788 0.54186,-14.25788 0,0 -0.84666,-1.35467 -4.8768,-1.2192 v 4.03013 c -0.23707,0.0339 -0.6096,0.0677 -0.84667,0.0677 -0.64346,0 -1.65947,-0.2032 -2.30293,-0.44027 -1.59174,-0.67733 -1.4224,-2.30294 -1.4224,-4.6736 0,-2.37067 0.37253,-3.01414 0.98213,-3.65761 0.6096,-0.64347 3.42054,-0.44027 3.42054,-0.44027 v 1.72721 l 4.4704,1.6256 c 0,0 1.6256,-2.06587 1.69334,-4.19947 0.0677,-2.1336 -0.57574,-2.77707 -1.35467,-2.81094 -0.8128,-0.0339 -3.89467,0 -3.89467,0 z"
       style="font-size:33.8667px;line-height:1.25;font-family:'Some Time Later';-inkscape-font-specification:'Some Time Later';stroke-width:0.148254"
       id="g" />
    <path
       d="m 149.09942,154.08978 3.2512,-0.7112 0.4064,-7.24747 c 0.0677,-0.6096 0.64347,-1.15147 1.25307,-1.18534 l 4.33494,0.16933 c 0.77893,0 1.8288,0.1016 1.8288,1.49014 l 0.0677,9.27948 4.19947,0.1016 -0.6096,-14.63042 c 0,-2.3368 -1.016,-2.91253 -3.11573,-2.91253 l -6.09601,0.0677 0.88053,-8.12801 -6.5024,0.54187 z"
       style="font-size:33.8667px;line-height:1.25;font-family:'Some Time Later';-inkscape-font-specification:'Some Time Later';stroke-width:0.148254"
       id="h" />
    <path
       d="m 166.60691,153.81885 h 4.57201 l 0.67733,-12.29362 -5.62187,0.27094 z m -0.7112,-15.95122 5.14774,0.2032 v -5.31707 l -4.33494,-1.3208 z"
       style="font-size:33.8667px;line-height:1.25;font-family:'Some Time Later';-inkscape-font-specification:'Some Time Later';stroke-width:0.148254"
       id="i" />
    <path
       d="m 174.67724,140.7463 3.25121,17.98322 h -6.80721 l 1.76107,5.31707 c 0,0 1.28693,0.57573 3.89467,-0.16933 1.25307,-0.33867 3.01413,-1.42241 3.8608,-2.43841 v -21.64082 z m 0,-4.91067 h 6.46854 l -0.98213,-5.45254 h -4.70747 z"
       style="font-size:33.8667px;line-height:1.25;font-family:'Some Time Later';-inkscape-font-specification:'Some Time Later';stroke-width:0.148254"
       id="j" />
    <path
       d="m 182.56448,131.09429 0.98213,22.89389 3.99627,0.0339 c 0,0 0.0339,-1.7272 -0.44027,-2.81094 -0.47413,-1.08373 -0.84666,-1.15147 -0.98213,-2.70934 -0.13547,-1.55786 0.1016,-2.87866 2.06587,-2.8448 1.96427,0.0339 3.4544,0.7112 3.7592,7.38294 l 5.04614,1.524 c 0,0 0.23707,-1.89653 -0.2032,-2.9464 -0.44027,-1.016 -4.09787,-5.7912 -4.09787,-5.7912 l 4.74134,-4.97841 -4.43654,-2.9464 c 0,0 -3.38667,6.06214 -3.92854,6.06214 -0.54186,0 -1.1176,-0.1016 -1.18533,-0.44027 -0.0677,-0.3048 0.88053,-13.14028 0.88053,-13.14028 z"
       style="font-size:33.8667px;line-height:1.25;font-family:'Some Time Later';-inkscape-font-specification:'Some Time Later';stroke-width:0.148254"
       id="k" />
    <path
       d="m 200.10814,152.06319 c 2.29863,3.10927 4.01748,2.09738 4.01748,2.09738 l 0.93253,-4.60893 -1.27498,0.08 1.01372,-19.24859 c 0,0 -1.79493,1.2192 -2.9464,1.15147 -0.84667,-0.0339 -2.57089,-0.0585 -3.38369,-0.2278 l 0.52515,4.20859 0.57088,-0.0374 z"
       style="font-size:33.8667px;line-height:1.25;font-family:'Some Time Later';-inkscape-font-specification:'Some Time Later';stroke-width:0.148254"
       id="l" />
    <path
       d="m 206.38018,154.08978 2.6416,-0.0677 c 0,0 -0.0339,-9.55041 0.47414,-10.63415 0.54186,-1.08373 4.064,-1.79493 4.94453,-1.1176 0.88054,0.64347 0.67734,4.67361 0.6096,7.14588 -0.0677,2.47226 -0.13546,4.8768 -0.13546,4.8768 l 5.41867,-0.27093 c 0,0 0.0677,-6.90881 0.4064,-7.55228 0.33867,-0.64346 1.59174,-0.77893 2.67547,-0.88053 1.1176,-0.1016 1.89653,-0.1016 2.60774,0.67733 0.74506,0.77894 0.54186,7.75548 0.54186,7.75548 l 3.45441,-0.44027 c 0,0 -0.508,-10.09228 -0.64347,-11.17601 -0.16933,-1.1176 -0.64347,-4.19947 -1.55787,-4.30107 -0.88053,-0.1016 -7.48454,2.54 -7.48454,2.54 0,0 0.0339,-2.4384 -1.65947,-2.47227 -1.69333,-0.0339 -4.9784,2.26907 -5.21547,1.9304 -0.23707,-0.3048 -0.67733,-0.77893 -1.016,-0.98213 -0.4064,-0.3048 -1.18534,-0.4064 -2.9464,-0.4064 -0.88054,0 -2.26907,0.2032 -3.11574,0.47413 z"
       style="font-size:33.8667px;line-height:1.25;font-family:'Some Time Later';-inkscape-font-specification:'Some Time Later';stroke-width:0.148254"
       id="m" />
    <path
       d="m 231.4463,155.00418 5.6896,-0.508 v -8.70374 c 0,-0.77894 0.6096,-1.4224 1.38854,-1.4224 0.0339,0 0.0677,0 0.0677,0 l 1.08373,0.0677 c 0.40641,0 0.74507,0.37253 0.74507,0.77893 0,0 0,0 0,0 l -0.16933,8.70375 6.23147,0.1016 c 0.4064,-2.50614 0.74507,-6.53628 0.74507,-9.07628 0,-0.0339 0,-0.1016 0,-0.13547 0,0 0,0 0,-0.0339 0,-0.54187 -0.16933,-1.38854 -0.4064,-1.86267 -0.16934,-0.4064 -0.54187,-1.04987 -0.8128,-1.38854 -0.88054,-1.04986 -2.37067,-1.1176 -2.37067,-1.1176 l -6.12987,-0.54186 v -1.76107 l -3.89467,0.74507 z"
       style="font-size:33.8667px;line-height:1.25;font-family:'Some Time Later';-inkscape-font-specification:'Some Time Later';stroke-width:0.148254"
       id="n" />
    <path
       id="o"
       style="font-size:33.8667px;line-height:1.25;font-family:'Some Time Later';-inkscape-font-specification:'Some Time Later';stroke-width:0.148254"
       d="m 52.171606,182.28873 c -0.368156,-0.39121 -2.642883,-0.8812 -3.089552,-0.99287 -1.659468,-0.37253 -4.402671,-0.7112 -6.129872,-0.7112 -0.982135,0.0339 -2.573869,0.27094 -3.556004,0.508 -1.253068,0.37254 -2.540002,1.65947 -2.844802,2.94641 -0.03387,0.13546 -0.06773,0.4064 -0.06773,0.57573 l -0.06773,3.42054 c 0,4.572 1.016001,6.94267 1.930402,8.128 0.508,0.64347 1.557868,1.18534 2.370669,1.18534 h 4.165604 c 0.575733,0 1.456268,-0.27094 1.930401,-0.57574 l 1.727202,-1.04986 c 0.372534,-0.3048 0.914401,-0.88054 1.219201,-1.28694 1.676112,-2.48951 1.918124,-5.91198 1.72818,-8.53059 -0.003,-0.0417 0.0094,-0.0486 0.01865,-0.0608 0.0093,-0.0121 0.04988,-0.0181 0.05467,-0.0183 0.257107,-0.0139 0.771323,-0.0418 0.771323,-0.0418 0.09206,-0.64832 0.228959,-3.08196 -0.160612,-3.49592 z m -5.968221,8.08339 c -0.135467,0.23707 -0.406401,0.54187 -0.609601,0.67733 l -0.812801,0.508 c -0.237066,0.16934 -0.643467,0.27094 -0.880534,0.27094 h -0.06773 -1.998135 -0.03387 c -0.4064,0 -0.880534,-0.23707 -1.117601,-0.57574 -0.440267,-0.6096 -0.914401,-1.8288 -0.948268,-4.2672 l 0.03387,-1.8288 v 0 c 0,-0.0677 0.03387,-0.2032 0.03387,-0.3048 0.135467,-0.64347 0.745067,-1.35467 1.388534,-1.55787 0.541868,-0.1016 1.422402,-0.2032 1.964269,-0.2032 h 0.2032 c 0.711201,0 1.828802,0.13546 2.506136,0.3048 0.474134,0.13546 0.914401,0.64347 0.982134,1.1176 0.270934,1.3208 0.440267,4.064 -0.643467,5.85894 z" />
    <path
       d="m 69.647077,181.92821 c -1.185334,-1.08374 -5.317072,-1.35467 -8.026407,-1.45627 -1.524002,-0.0677 -4.131738,0 -6.16374,0 -2.336802,0 -2.336802,0.2032 -2.336802,2.81093 v 23.19869 l 3.352803,0.1016 v -12.56454 l 7.382941,0.7112 c 0,0 6.129872,0.44027 6.807206,-0.33867 0.643468,-0.8128 0.778934,-2.60773 0.778934,-6.02827 0,-3.38667 -0.6096,-5.35094 -1.794935,-6.43467 z m -5.554138,10.05841 c -2.472269,0 -2.641603,-1.3208 -2.810936,-4.84294 -0.203201,-3.556 3.48827,-3.96241 3.48827,-3.96241 0.2032,-0.0339 0.508,-0.0339 0.7112,-0.0339 0.372534,0 0.982135,0.0339 1.320802,0.0677 1.286934,0.13547 2.065868,1.04987 2.065868,5.14774 0,4.09787 -2.269069,3.69147 -4.775204,3.62374 z"
       style="font-size:33.8667px;line-height:1.25;font-family:'Some Time Later';-inkscape-font-specification:'Some Time Later';stroke-width:0.148254"
       id="p" />
    <path
       id="q"
       style="font-size:33.8667px;line-height:1.25;font-family:'Some Time Later';-inkscape-font-specification:'Some Time Later';stroke-width:0.148254"
       d="m 72.698969,192.23477 c 0,0.47413 0.37254,1.1176 0.77894,1.4224 0.508,0.33867 1.45627,0.64347 2.06587,0.7112 3.42053,0.4064 6.73947,-1.15146 6.73947,-1.15146 l -0.6096,11.24374 6.70561,-1.28694 -0.64347,-21.26828 c 0,0 -1.69334,-1.35467 -7.24747,-1.25307 -5.55414,0.0677 -6.29921,0.67733 -7.31521,2.50614 -0.6096,1.08373 -0.508,7.14587 -0.47414,9.07627 z m 9.95681,-7.95867 c 2.16747,0.0339 2.30294,0.9144 2.47227,3.38667 0.16934,2.4384 -3.08187,2.7432 -3.08187,2.7432 -0.16933,0 -0.44026,0.0339 -0.6096,0.0339 -0.3048,0 -0.84666,-0.0339 -1.18533,-0.0677 -1.1176,-0.1016 -1.79494,-0.74506 -1.79494,-3.58987 0,-2.8448 1.99814,-2.54 4.19947,-2.50613 z" />
    <path
       d="m 90.697348,196.76182 3.759203,0.2032 0.440267,-7.75547 c 0.270934,-2.57387 -0.169333,-2.1336 2.77707,-2.26907 1.320801,-0.0677 5.588002,0.64347 5.588002,0.64347 v -6.84108 l -7.823205,0.7112 -0.135466,-1.76107 -4.978405,0.67734 z"
       style="font-size:33.8667px;line-height:1.25;font-family:'Some Time Later';-inkscape-font-specification:'Some Time Later';stroke-width:0.148254"
       id="r" />
    <path
       d="m 105.78444,189.41275 c -1.72721,2.032 -2.37067,3.9624 -2.60774,6.57014 3.3528,0.23706 10.93894,1.9304 12.93708,-1.8288 1.76107,-3.28507 -2.81094,-6.16374 -4.87681,-7.95868 -3.58987,-3.08187 2.77707,-2.09973 4.74134,-1.8288 -0.0677,-3.52214 -1.76107,-4.23334 -5.04614,-4.13174 -2.4384,0.1016 -6.57014,0.508 -5.04613,3.99627 0.74506,1.7272 6.63787,3.58987 5.55413,5.79121 -0.98213,1.89653 -4.50427,-0.0677 -5.65573,-0.6096 z"
       style="font-size:33.8667px;line-height:1.25;font-family:'Some Time Later';-inkscape-font-specification:'Some Time Later';stroke-width:0.148254"
       id="s" />
    <path
       d="m 120.8186,196.55862 h 3.99627 v -14.32561 h 6.36694 v -4.60587 h -5.14773 v -4.91068 h -5.48641 v 3.69147 h -2.60774 v 6.87494 l 2.67547,0.57574 z"
       style="font-size:33.8667px;line-height:1.25;font-family:'Some Time Later';-inkscape-font-specification:'Some Time Later';stroke-width:0.148254"
       id="t" />
    <path
       d="m 132.81111,181.52181 c -0.37253,0.0677 -0.67733,0.4064 -0.7112,0.77893 -0.16933,2.50614 -0.54186,11.17601 1.18534,12.56455 1.99813,1.6256 2.9464,1.69333 5.85894,1.69333 2.87867,0 5.65574,-0.0677 7.2136,-1.49013 1.55787,-1.42241 2.37067,-12.63228 0.4064,-14.35948 -1.49013,-1.35467 -3.9624,0.57573 -4.9784,1.49013 -0.13547,0.1016 -0.27093,0.37253 -0.27093,0.57573 0,0.1016 0.0339,0.27094 0.1016,0.37254 0.7112,1.38853 2.6416,5.14774 2.8448,6.77334 0.23707,1.96427 -0.88054,2.70933 -3.82694,2.60773 -2.98027,-0.1016 -3.58987,0.0677 -4.09787,-0.98213 -0.54187,-1.08373 1.76107,-6.33307 1.28694,-10.36321 -0.0339,-0.23707 -0.23707,-0.4064 -0.47414,-0.4064 -0.0339,0 -0.0677,0 -0.0677,0 z"
       style="font-size:33.8667px;line-height:1.25;font-family:'Some Time Later';-inkscape-font-specification:'Some Time Later';stroke-width:0.148254"
       id="u" />
    <path
       d="m 149.42538,181.65727 c 0,0 1.7272,6.26534 2.77707,8.66988 1.016,2.37067 1.524,4.33494 2.16747,5.11387 0.64346,0.74507 4.80907,1.49013 5.4864,0.7112 0.67733,-0.8128 5.65574,-9.82134 5.24934,-14.49495 h -3.7592 c 0,0 -1.49014,7.31521 -2.70934,7.31521 -1.2192,0 -3.89467,-8.73761 -3.89467,-8.73761 z"
       style="font-size:33.8667px;line-height:1.25;font-family:'Some Time Later';-inkscape-font-specification:'Some Time Later';stroke-width:0.148254"
       id="v" />
    <path
       d="m 166.55717,181.28474 c 0,0 1.016,7.85707 2.2352,11.10828 0.9144,2.37067 1.69333,3.556 2.06587,4.064 0.1016,0.13547 0.3048,0.23707 0.508,0.23707 v 0 h 6.77334 l 0.37253,-2.57387 c 0.0339,-0.23707 0.23707,-0.44027 0.47414,-0.44027 v 0 h 1.3208 c 0.2032,0 0.4064,0.16933 0.44026,0.37254 l 0.33867,2.47226 h 4.80907 v 0 c 0.16934,0 0.37254,-0.1016 0.47414,-0.2032 0.64346,-0.8128 2.87867,-3.72533 3.79307,-6.46854 1.04986,-3.21733 2.06587,-8.0264 2.06587,-8.0264 l -3.45441,-1.25307 -2.06587,8.36507 c -0.0339,0.0677 -0.1016,0.23707 -0.13546,0.3048 -0.16934,0.27094 -0.6096,0.84667 -1.28694,0.84667 -0.508,0 -1.04987,-0.4064 -1.38853,-0.74507 -0.2032,-0.2032 -0.4064,-0.57573 -0.4064,-0.84666 l -0.6096,-6.87494 h -6.50241 l -0.47413,10.70187 c 0,0 0.0677,0.67734 -1.08374,0.7112 -1.15147,0 -1.89653,-0.1016 -1.9304,-0.54186 -0.0677,-0.44027 -1.016,-11.27761 -1.016,-11.27761 z"
       style="font-size:33.8667px;line-height:1.25;font-family:'Some Time Later';-inkscape-font-specification:'Some Time Later';stroke-width:0.148254"
       id="w" />
    <path
       d="m 198.09658,187.17755 -6.53627,9.4488 h 6.53627 l 3.52214,-4.19947 2.40454,4.26721 h 5.75733 l -6.02827,-9.11014 3.69147,-4.03014 -4.43654,-3.08187 -2.2352,2.4384 -3.7592,-2.67547 -3.31894,1.99814 z"
       style="font-size:33.8667px;line-height:1.25;font-family:'Some Time Later';-inkscape-font-specification:'Some Time Later';stroke-width:0.148254"
       id="x" />
    <path
       d="m 210.18065,201.43543 5.08,0.0339 11.78562,-17.78001 -3.69148,-3.04801 -4.50427,7.62001 -5.08,-8.02641 -5.01227,2.6416 5.04614,12.05655 z"
       style="font-size:33.8667px;line-height:1.25;font-family:'Some Time Later';-inkscape-font-specification:'Some Time Later';stroke-width:0.148254"
       id="y" />
    <path
       d="m 229.01319,180.23487 -0.6096,4.09787 5.96054,0.0339 c 0.54186,0.1016 0.27093,1.76107 -0.16934,2.16747 -0.37253,0.3048 -4.064,3.72533 -3.99627,4.30107 0.13547,1.9304 0.64347,5.96054 0.64347,5.96054 0,0 9.17788,0.37253 10.49868,-0.57574 0.94826,-0.67733 1.59173,-2.57387 1.89653,-3.556 0,0 0,-0.0339 0,-0.0677 0,-0.13547 -0.1016,-0.23707 -0.23707,-0.23707 -0.0339,0 -0.0677,0.0339 -0.1016,0.0339 -0.8128,0.47413 -2.40453,1.28693 -3.42053,1.28693 0,0 -0.0339,0 -0.0339,0 -0.37253,0 -0.94827,-0.13547 -1.25307,-0.3048 -0.508,-0.27093 -0.94826,-1.49013 -0.74506,-2.032 l 3.18347,-6.84107 -0.3048,-3.75921 c -1.45627,0.2032 -3.82694,0.4064 -5.31708,0.47414 -1.89653,0 -5.9944,-0.98214 -5.9944,-0.98214 z"
       style="font-size:33.8667px;line-height:1.25;font-family:'Some Time Later';-inkscape-font-specification:'Some Time Later';stroke-width:0.148254"
       id="z" />
  </g>
</svg>
