<?xml version="1.0" encoding="UTF-8" standalone="no"?>
<svg
   xmlns:dc="http://purl.org/dc/elements/1.1/"
   xmlns:cc="http://creativecommons.org/ns#"
   xmlns:rdf="http://www.w3.org/1999/02/22-rdf-syntax-ns#"
   xmlns:svg="http://www.w3.org/2000/svg"
   xmlns="http://www.w3.org/2000/svg"
   xmlns:xlink="http://www.w3.org/1999/xlink"
   xmlns:sodipodi="http://sodipodi.sourceforge.net/DTD/sodipodi-0.dtd"
   xmlns:inkscape="http://www.inkscape.org/namespaces/inkscape"
   inkscape:version="1.0 (4035a4f, 2020-05-01)"
   sodipodi:docname="0.svg"
   id="svg204"
   viewBox="0 0 643.19999 643.19998"
   version="1.1"
   width="181.53mm"
   height="181.53mm">
  <metadata
     id="metadata208">
    <rdf:RDF>
      <cc:Work
         rdf:about="">
        <dc:format>image/svg+xml</dc:format>
        <dc:type
           rdf:resource="http://purl.org/dc/dcmitype/StillImage" />
      </cc:Work>
    </rdf:RDF>
  </metadata>
  <sodipodi:namedview
     inkscape:current-layer="svg204"
     inkscape:window-maximized="0"
     inkscape:window-y="23"
     inkscape:window-x="0"
     inkscape:cy="343.04882"
     inkscape:cx="343.04882"
     inkscape:zoom="0.66681193"
     showgrid="false"
     id="namedview206"
     inkscape:window-height="776"
     inkscape:window-width="1342"
     inkscape:pageshadow="2"
     inkscape:pageopacity="0"
     guidetolerance="10"
     gridtolerance="10"
     objecttolerance="10"
     borderopacity="1"
     bordercolor="#666666"
     pagecolor="#ffffff" />
  <defs
     id="defs172">
    <linearGradient
       x1="130"
       y1="542.36"
       gradientTransform="translate(200)"
       x2="130"
       gradientUnits="userSpaceOnUse"
       xlink:href="#c"
       y2="392.36"
       id="g" />
    <linearGradient
       id="c">
      <stop
         id="stop146"
         offset="0"
         stop-color="#cfcfcf" />
      <stop
         id="stop148"
         offset="1"
         stop-color="#f7f7f7" />
    </linearGradient>
    <linearGradient
       x1="55"
       y1="467.36"
       gradientTransform="translate(200)"
       x2="215"
       gradientUnits="userSpaceOnUse"
       xlink:href="#c"
       y2="467.36"
       id="f" />
    <clipPath
       clipPathUnits="userSpaceOnUse"
       id="i">
      <rect
         id="rect152"
         fill="none"
         stroke-width="0.8"
         x="55"
         y="387.36"
         stroke="#000"
         width="160"
         height="160"
         ry="30" />
    </clipPath>
    <filter
       x="-.095824"
       y="-1.4809"
       width="1.1916"
       height="3.9618"
       style="color-interpolation-filters:sRGB"
       id="d">
      <feGaussianBlur
         id="feGaussianBlur155"
         stdDeviation="6.7875" />
    </filter>
    <filter
       x="-.095824"
       y="-1.4809"
       width="1.1916"
       height="3.9618"
       style="color-interpolation-filters:sRGB"
       id="a">
      <feGaussianBlur
         id="feGaussianBlur158"
         stdDeviation="6.7875" />
    </filter>
    <linearGradient
       x1="140"
       y1="402.36"
       gradientTransform="translate(200)"
       x2="140"
       gradientUnits="userSpaceOnUse"
       y2="532.36"
       id="e">
      <stop
         id="stop161"
         offset="0"
         stop-color="#e0e0e0" />
      <stop
         id="stop163"
         offset="1"
         stop-color="#eaeaea" />
    </linearGradient>
    <linearGradient
       x1="-170"
       y1="482.36"
       gradientTransform="translate(300,2.1e-5)"
       x2="-170"
       gradientUnits="userSpaceOnUse"
       xlink:href="#h"
       y2="452.36"
       id="b" />
    <linearGradient
       id="h">
      <stop
         id="stop167"
         offset="0"
         stop-color="#787878" />
      <stop
         id="stop169"
         offset="1"
         stop-color="#0c0c0c" />
    </linearGradient>
  </defs>
  <g
     id="g202"
     transform="translate(1578.7 317.81)">
    <g
       id="g200"
       transform="matrix(4 0 0 4 -2597.1 -1865.7)">
      <rect
         id="rect174"
         fill="url(#g)"
         stroke-width="0.8"
         x="255"
         y="387.36"
         stroke="url(#f)"
         width="160"
         height="160"
         ry="30" />
      <g
         id="g188"
         clip-path="url(#i)"
         transform="translate(200)">
        <path
           id="path176"
           fill="#666"
           filter="url(#d)"
           d="m135 542.36a90.002 13 0 0 0 -85 8.77c4.8596 1.4338 10.182 2.2285 15.772 2.2285h138.46c5.5874 0 10.906-0.79421 15.764-2.2266a90.002 13 0 0 0 -84.996 -8.7734z" />
        <g
           id="g184"
           fill="#fff">
          <path
             id="path178"
             filter="url(#a)"
             d="m135 393.36a90.002 13 0 0 1 -85 -8.77c4.8596-1.4338 10.182-2.2285 15.772-2.2285h138.46c5.5874 0 10.906 0.79421 15.764 2.2266a90.002 13 0 0 1 -84.996 8.7734z" />
          <path
             id="path180"
             filter="url(#a)"
             d="m135 393.36a90.002 13 0 0 1 -85 -8.77c4.8596-1.4338 10.182-2.2285 15.772-2.2285h138.46c5.5874 0 10.906 0.79421 15.764 2.2266a90.002 13 0 0 1 -84.996 8.7734z" />
          <path
             id="path182"
             filter="url(#a)"
             d="m135 393.36a90.002 13 0 0 1 -85 -8.77c4.8596-1.4338 10.182-2.2285 15.772-2.2285h138.46c5.5874 0 10.906 0.79421 15.764 2.2266a90.002 13 0 0 1 -84.996 8.7734z" />
        </g>
        <path
           id="path186"
           fill="#666"
           filter="url(#d)"
           d="m135 542.36a90.002 13 0 0 0 -85 8.77c4.8596 1.4338 10.182 2.2285 15.772 2.2285h138.46c5.5874 0 10.906-0.79421 15.764-2.2266a90.002 13 0 0 0 -84.996 -8.7734z" />
      </g>
      <rect
         id="rect190"
         fill="none"
         stroke-width="0.7"
         x="255"
         y="387.36"
         stroke="#000"
         width="160"
         height="160"
         ry="30" />
      <rect
         id="rect192"
         fill="url(#e)"
         x="270"
         y="402.36"
         width="130"
         height="130"
         ry="40" />
    </g>
  </g>
</svg>
