<?xml version="1.0" encoding="UTF-8" standalone="no"?>
<!-- Created with Inkscape (http://www.inkscape.org/) -->

<svg
   xmlns:dc="http://purl.org/dc/elements/1.1/"
   xmlns:cc="http://creativecommons.org/ns#"
   xmlns:rdf="http://www.w3.org/1999/02/22-rdf-syntax-ns#"
   xmlns:svg="http://www.w3.org/2000/svg"
   xmlns="http://www.w3.org/2000/svg"
   xmlns:sodipodi="http://sodipodi.sourceforge.net/DTD/sodipodi-0.dtd"
   xmlns:inkscape="http://www.inkscape.org/namespaces/inkscape"
   width="210mm"
   height="297mm"
   viewBox="0 0 744.09448819 1052.3622047"
   id="svg2"
   version="1.1"
   inkscape:version="0.91 r13725"
   sodipodi:docname="the-spatial-game-of-ur.svg">
  <defs
     id="defs4" />
  <sodipodi:namedview
     id="base"
     pagecolor="#ffffff"
     bordercolor="#666666"
     borderopacity="1.0"
     inkscape:pageopacity="0.0"
     inkscape:pageshadow="2"
     inkscape:zoom="0.40368418"
     inkscape:cx="373.72231"
     inkscape:cy="372.3152"
     inkscape:document-units="px"
     inkscape:current-layer="layer3"
     showgrid="false"
     showborder="true"
     inkscape:object-nodes="true"
     inkscape:snap-global="true"
     showguides="true"
     inkscape:guide-bbox="true"
     inkscape:window-width="1405"
     inkscape:window-height="855"
     inkscape:window-x="35"
     inkscape:window-y="1"
     inkscape:window-maximized="1" />
  <metadata
     id="metadata7">
    <rdf:RDF>
      <cc:Work
         rdf:about="">
        <dc:format>image/svg+xml</dc:format>
        <dc:type
           rdf:resource="http://purl.org/dc/dcmitype/StillImage" />
        <dc:title></dc:title>
      </cc:Work>
    </rdf:RDF>
  </metadata>
  <g
     inkscape:label="Layer 1"
     inkscape:groupmode="layer"
     id="layer1" />
  <g
     inkscape:groupmode="layer"
     id="layer2"
     inkscape:label="Endings" />
  <g
     inkscape:groupmode="layer"
     id="layer3"
     inkscape:label="Stars"
     style="display:inline">
    <g
       id="g6517">
      <rect
         style="opacity:1;fill:#666666;fill-opacity:1;fill-rule:nonzero;stroke:none;stroke-width:1;stroke-linecap:round;stroke-linejoin:round;stroke-miterlimit:4;stroke-dasharray:none;stroke-opacity:1"
         id="rect5845"
         width="518.04016"
         height="958.2323"
         x="36.984512"
         y="49.533447" />
      <rect
         y="44.716881"
         x="32.167652"
         height="958.2323"
         width="518.04016"
         id="rect5520"
         style="opacity:1;fill:#ffffff;fill-opacity:1;fill-rule:nonzero;stroke:#000000;stroke-width:0.24081953;stroke-linecap:round;stroke-linejoin:round;stroke-miterlimit:4;stroke-dasharray:none;stroke-opacity:1" />
      <g
         transform="matrix(0.96355975,0,0,0.96355975,-67.302007,16.826071)"
         id="g4879">
        <path
           sodipodi:type="star"
           style="opacity:1;fill:#f2f2f2;fill-opacity:1;fill-rule:nonzero;stroke:#333333;stroke-width:0.56826323;stroke-linecap:round;stroke-linejoin:round;stroke-miterlimit:4;stroke-dasharray:none;stroke-opacity:1"
           id="path3340"
           sodipodi:sides="5"
           sodipodi:cx="372.04715"
           sodipodi:cy="263.7666"
           sodipodi:r1="48.339241"
           sodipodi:r2="39.107262"
           sodipodi:arg1="-1.5707963"
           sodipodi:arg2="-0.9424778"
           inkscape:flatsided="true"
           inkscape:rounded="0"
           inkscape:randomized="0"
           d="m 372.04715,215.42736 45.97335,33.4016 -17.56026,54.04491 -56.82618,0 -17.56026,-54.04492 z"
           inkscape:transform-center-y="-8.1229736"
           inkscape:transform-center-x="-4.2326508e-05" />
        <rect
           style="opacity:1;fill:#f2f2f2;fill-opacity:1;fill-rule:nonzero;stroke:#333333;stroke-width:0.56826323;stroke-linecap:round;stroke-linejoin:round;stroke-miterlimit:4;stroke-dasharray:none;stroke-opacity:1"
           id="rect3346"
           width="56.826324"
           height="56.826324"
           x="343.63403"
           y="302.87387" />
        <rect
           y="44.399418"
           x="-484.44366"
           height="56.826324"
           width="56.826324"
           id="rect3348"
           style="opacity:1;fill:#f2f2f2;fill-opacity:1;fill-rule:nonzero;stroke:#333333;stroke-width:0.56826323;stroke-linecap:round;stroke-linejoin:round;stroke-miterlimit:4;stroke-dasharray:none;stroke-opacity:1"
           transform="matrix(-0.809017,-0.58778525,0.58778525,-0.809017,0,0)" />
        <rect
           y="-392.96823"
           x="-174.36757"
           height="56.826324"
           width="56.826324"
           id="rect3350"
           style="opacity:1;fill:#f2f2f2;fill-opacity:1;fill-rule:nonzero;stroke:#333333;stroke-width:0.56826323;stroke-linecap:round;stroke-linejoin:round;stroke-miterlimit:4;stroke-dasharray:none;stroke-opacity:1"
           transform="matrix(-0.809017,0.58778525,-0.58778525,-0.809017,0,0)" />
        <rect
           y="359.7002"
           x="343.63403"
           height="56.826324"
           width="56.826324"
           id="rect3364"
           style="opacity:1;fill:#f2f2f2;fill-opacity:1;fill-rule:nonzero;stroke:#333333;stroke-width:0.56826323;stroke-linecap:round;stroke-linejoin:round;stroke-miterlimit:4;stroke-dasharray:none;stroke-opacity:1" />
        <rect
           y="416.52652"
           x="343.63403"
           height="56.826324"
           width="56.826324"
           id="rect3366"
           style="opacity:1;fill:#f2f2f2;fill-opacity:1;fill-rule:nonzero;stroke:#333333;stroke-width:0.56826323;stroke-linecap:round;stroke-linejoin:round;stroke-miterlimit:4;stroke-dasharray:none;stroke-opacity:1" />
        <path
           inkscape:transform-center-x="-4.2326508e-05"
           inkscape:transform-center-y="-8.1229736"
           d="m -372.04736,-731.27833 45.97335,33.4016 -17.56026,54.04491 -56.82619,0 -17.56025,-54.04492 z"
           inkscape:randomized="0"
           inkscape:rounded="0"
           inkscape:flatsided="true"
           sodipodi:arg2="-0.9424778"
           sodipodi:arg1="-1.5707963"
           sodipodi:r2="39.107262"
           sodipodi:r1="48.339241"
           sodipodi:cy="-682.93909"
           sodipodi:cx="-372.04736"
           sodipodi:sides="5"
           id="path3370"
           style="opacity:1;fill:#f2f2f2;fill-opacity:1;fill-rule:nonzero;stroke:#333333;stroke-width:0.56826323;stroke-linecap:round;stroke-linejoin:round;stroke-miterlimit:4;stroke-dasharray:none;stroke-opacity:1"
           sodipodi:type="star"
           transform="scale(-1,-1)" />
        <rect
           y="-643.83179"
           x="-400.46036"
           height="56.826324"
           width="56.826324"
           id="rect3372"
           style="opacity:1;fill:#f2f2f2;fill-opacity:1;fill-rule:nonzero;stroke:#333333;stroke-width:0.56826323;stroke-linecap:round;stroke-linejoin:round;stroke-miterlimit:4;stroke-dasharray:none;stroke-opacity:1"
           transform="scale(-1,-1)" />
        <rect
           y="429.759"
           x="674.00098"
           height="56.826324"
           width="56.826324"
           id="rect3378"
           style="opacity:1;fill:#f2f2f2;fill-opacity:1;fill-rule:nonzero;stroke:#333333;stroke-width:0.56826323;stroke-linecap:round;stroke-linejoin:round;stroke-miterlimit:4;stroke-dasharray:none;stroke-opacity:1"
           transform="matrix(0.809017,0.58778525,-0.58778525,0.809017,0,0)" />
        <rect
           y="486.58533"
           x="674.00098"
           height="56.826324"
           width="56.826324"
           id="rect3380"
           style="opacity:1;fill:#f2f2f2;fill-opacity:1;fill-rule:nonzero;stroke:#333333;stroke-width:0.56826323;stroke-linecap:round;stroke-linejoin:round;stroke-miterlimit:4;stroke-dasharray:none;stroke-opacity:1"
           transform="matrix(0.809017,0.58778525,-0.58778525,0.809017,0,0)" />
        <rect
           transform="matrix(0.809017,0.58778525,-0.58778525,0.809017,0,0)"
           style="opacity:1;fill:#f2f2f2;fill-opacity:1;fill-rule:nonzero;stroke:#333333;stroke-width:0.56826323;stroke-linecap:round;stroke-linejoin:round;stroke-miterlimit:4;stroke-dasharray:none;stroke-opacity:1"
           id="rect3382"
           width="56.826324"
           height="56.826324"
           x="674.00098"
           y="543.41168" />
        <rect
           y="867.12683"
           x="-128.84218"
           height="56.826324"
           width="56.826324"
           id="rect3384"
           style="opacity:1;fill:#f2f2f2;fill-opacity:1;fill-rule:nonzero;stroke:#333333;stroke-width:0.56826323;stroke-linecap:round;stroke-linejoin:round;stroke-miterlimit:4;stroke-dasharray:none;stroke-opacity:1"
           transform="matrix(0.809017,-0.58778525,0.58778525,0.809017,0,0)" />
        <rect
           y="923.95312"
           x="-128.84218"
           height="56.826324"
           width="56.826324"
           id="rect3386"
           style="opacity:1;fill:#f2f2f2;fill-opacity:1;fill-rule:nonzero;stroke:#333333;stroke-width:0.56826323;stroke-linecap:round;stroke-linejoin:round;stroke-miterlimit:4;stroke-dasharray:none;stroke-opacity:1"
           transform="matrix(0.809017,-0.58778525,0.58778525,0.809017,0,0)" />
        <rect
           transform="matrix(0.809017,-0.58778525,0.58778525,0.809017,0,0)"
           style="opacity:1;fill:#f2f2f2;fill-opacity:1;fill-rule:nonzero;stroke:#333333;stroke-width:0.56826323;stroke-linecap:round;stroke-linejoin:round;stroke-miterlimit:4;stroke-dasharray:none;stroke-opacity:1"
           id="rect3388"
           width="56.826324"
           height="56.826324"
           x="-128.84218"
           y="980.77948" />
        <rect
           style="opacity:1;fill:#f2f2f2;fill-opacity:1;fill-rule:nonzero;stroke:#333333;stroke-width:0.56826323;stroke-linecap:round;stroke-linejoin:round;stroke-miterlimit:4;stroke-dasharray:none;stroke-opacity:1"
           id="rect3390"
           width="56.826324"
           height="56.826324"
           x="-400.46036"
           y="-587.00549"
           transform="scale(-1,-1)" />
        <path
           inkscape:connector-curvature="0"
           id="path3539"
           d="m 216.0058,47.834647 -9.42949,59.530463 41.75209,57.46682 8.75098,12.04469 3.29371,-20.79567 44.87082,-32.60055 20.79566,3.29371 -8.75098,-12.04469 -41.75209,-57.466825 -59.5307,-9.427948 z"
           style="opacity:1;fill:#008080;fill-opacity:1;fill-rule:nonzero;stroke:none;stroke-width:1;stroke-linecap:round;stroke-linejoin:round;stroke-miterlimit:4;stroke-dasharray:none;stroke-opacity:1" />
        <path
           style="opacity:1;fill:#ab37c8;fill-opacity:1;fill-rule:nonzero;stroke:none;stroke-width:1;stroke-linecap:round;stroke-linejoin:round;stroke-miterlimit:4;stroke-dasharray:none;stroke-opacity:1"
           d="m 529.19113,48.635728 -59.5307,9.427942 -41.75209,57.46683 -8.75099,12.04469 20.79567,-3.29371 44.87082,32.60055 3.29371,20.79567 8.75097,-12.04469 41.7521,-57.46683 -9.42949,-59.530452 z"
           id="path3551"
           inkscape:connector-curvature="0" />
        <path
           inkscape:connector-curvature="0"
           id="path3594"
           d="m 553.01399,1004.5276 3.29371,-20.79571 44.87082,-32.60056 20.79565,3.29371 -8.75097,-12.04469 -41.75212,-57.46683 -19.84376,-3.14294 -45.97346,33.40167 -3.14294,19.84379 41.75209,57.46682 8.75098,12.04474 z"
           style="opacity:1;fill:#ab37c8;fill-opacity:1;fill-rule:nonzero;stroke:none;stroke-width:1;stroke-linecap:round;stroke-linejoin:round;stroke-miterlimit:4;stroke-dasharray:none;stroke-opacity:1" />
        <path
           inkscape:connector-curvature="0"
           id="path3600"
           d="m 122.12032,954.42503 20.79566,-3.29371 44.87082,32.60056 3.29371,20.79562 8.75098,-12.04465 41.75209,-57.46682 -3.14295,-19.84379 -45.97345,-33.40167 -19.84379,3.14294 -41.7521,57.46683 -8.75097,12.04469 z"
           style="opacity:1;fill:#008080;fill-opacity:1;fill-rule:nonzero;stroke:none;stroke-width:1;stroke-linecap:round;stroke-linejoin:round;stroke-miterlimit:4;stroke-dasharray:none;stroke-opacity:1" />
        <rect
           style="opacity:1;fill:#f2f2f2;fill-opacity:1;fill-rule:nonzero;stroke:#333333;stroke-width:0.56826323;stroke-linecap:round;stroke-linejoin:round;stroke-miterlimit:4;stroke-dasharray:none;stroke-opacity:1"
           id="rect3392"
           width="56.826324"
           height="56.826324"
           x="-400.46036"
           y="-530.17914"
           transform="scale(-1,-1)" />
        <path
           sodipodi:type="star"
           style="opacity:1;fill:#808080;fill-opacity:1;fill-rule:nonzero;stroke:none;stroke-width:1;stroke-linecap:round;stroke-linejoin:round;stroke-miterlimit:4;stroke-dasharray:none;stroke-opacity:1"
           id="path3604"
           sodipodi:sides="5"
           sodipodi:cx="372.04721"
           sodipodi:cy="503.65671"
           sodipodi:r1="19.799646"
           sodipodi:r2="9.8998232"
           sodipodi:arg1="-1.5707963"
           sodipodi:arg2="-0.9424778"
           inkscape:flatsided="false"
           inkscape:rounded="0"
           inkscape:randomized="0"
           d="m 372.04721,483.85706 5.81897,11.79052 13.01161,1.8907 -9.41529,9.17764 2.22265,12.95904 -11.63794,-6.11843 -11.63794,6.11843 2.22265,-12.95904 -9.41529,-9.17764 13.01161,-1.8907 z"
           inkscape:transform-center-x="-3.3271515" />
        <rect
           transform="matrix(-0.80901699,-0.58778525,0.58778525,-0.80901699,0,0)"
           y="101.22574"
           x="-484.44366"
           height="56.826324"
           width="56.826324"
           id="rect3729"
           style="opacity:1;fill:#f2f2f2;fill-opacity:1;fill-rule:nonzero;stroke:#333333;stroke-width:0.56826323;stroke-linecap:round;stroke-linejoin:round;stroke-miterlimit:4;stroke-dasharray:none;stroke-opacity:1" />
        <path
           inkscape:transform-center-x="-3.3271515"
           d="m 372.04721,483.85706 5.81897,11.79052 13.01161,1.8907 -9.41529,9.17764 2.22265,12.95904 -11.63794,-6.11843 -11.63794,6.11843 2.22265,-12.95904 -9.41529,-9.17764 13.01161,-1.8907 z"
           inkscape:randomized="0"
           inkscape:rounded="0"
           inkscape:flatsided="false"
           sodipodi:arg2="-0.9424778"
           sodipodi:arg1="-1.5707963"
           sodipodi:r2="9.8998232"
           sodipodi:r1="19.799646"
           sodipodi:cy="503.65671"
           sodipodi:cx="372.04721"
           sodipodi:sides="5"
           id="path3731"
           style="opacity:1;fill:#808080;fill-opacity:1;fill-rule:nonzero;stroke:none;stroke-width:1;stroke-linecap:round;stroke-linejoin:round;stroke-miterlimit:4;stroke-dasharray:none;stroke-opacity:1"
           sodipodi:type="star"
           transform="matrix(0.80901699,0.58778525,-0.58778525,0.80901699,439.0744,-461.45312)" />
        <rect
           style="opacity:1;fill:#f2f2f2;fill-opacity:1;fill-rule:nonzero;stroke:#333333;stroke-width:0.56826323;stroke-linecap:round;stroke-linejoin:round;stroke-miterlimit:4;stroke-dasharray:none;stroke-opacity:1"
           id="rect3735"
           width="56.826324"
           height="56.826324"
           x="-174.36757"
           y="-336.14191"
           transform="matrix(-0.80901699,0.58778525,-0.58778525,-0.80901699,0,0)" />
        <path
           sodipodi:type="star"
           style="opacity:1;fill:#808080;fill-opacity:1;fill-rule:nonzero;stroke:none;stroke-width:1;stroke-linecap:round;stroke-linejoin:round;stroke-miterlimit:4;stroke-dasharray:none;stroke-opacity:1"
           id="path3737"
           sodipodi:sides="5"
           sodipodi:cx="372.04721"
           sodipodi:cy="503.65671"
           sodipodi:r1="19.799646"
           sodipodi:r2="9.8998232"
           sodipodi:arg1="-1.5707963"
           sodipodi:arg2="-0.9424778"
           inkscape:flatsided="false"
           inkscape:rounded="0"
           inkscape:randomized="0"
           d="m 372.04721,483.85706 5.81897,11.79052 13.01161,1.8907 -9.41529,9.17764 2.22265,12.95904 -11.63794,-6.11843 -11.63794,6.11843 2.22265,-12.95904 -9.41529,-9.17764 13.01161,-1.8907 z"
           inkscape:transform-center-x="-3.3271515"
           transform="matrix(0.80901699,-0.58778525,0.58778525,0.80901699,-296.96513,-24.085407)" />
        <rect
           transform="matrix(-0.80901699,0.58778525,-0.58778525,-0.80901699,0,0)"
           y="-867.12689"
           x="72.015656"
           height="56.826324"
           width="56.826324"
           id="rect3741"
           style="opacity:1;fill:#f2f2f2;fill-opacity:1;fill-rule:nonzero;stroke:#333333;stroke-width:0.56826323;stroke-linecap:round;stroke-linejoin:round;stroke-miterlimit:4;stroke-dasharray:none;stroke-opacity:1" />
        <path
           inkscape:transform-center-x="-3.3271515"
           d="m 372.04721,483.85706 5.81897,11.79052 13.01161,1.8907 -9.41529,9.17764 2.22265,12.95904 -11.63794,-6.11843 -11.63794,6.11843 2.22265,-12.95904 -9.41529,-9.17764 13.01161,-1.8907 z"
           inkscape:randomized="0"
           inkscape:rounded="0"
           inkscape:flatsided="false"
           sodipodi:arg2="-0.9424778"
           sodipodi:arg1="-1.5707963"
           sodipodi:r2="9.8998232"
           sodipodi:r1="19.799646"
           sodipodi:cy="503.65671"
           sodipodi:cx="372.04721"
           sodipodi:sides="5"
           id="path3743"
           style="opacity:1;fill:#808080;fill-opacity:1;fill-rule:nonzero;stroke:none;stroke-width:1;stroke-linecap:round;stroke-linejoin:round;stroke-miterlimit:4;stroke-dasharray:none;stroke-opacity:1"
           sodipodi:type="star"
           transform="matrix(0.80901699,-0.58778525,0.58778525,0.80901699,-184.18821,550.31088)" />
        <rect
           style="opacity:1;fill:#f2f2f2;fill-opacity:1;fill-rule:nonzero;stroke:#333333;stroke-width:0.56826323;stroke-linecap:round;stroke-linejoin:round;stroke-miterlimit:4;stroke-dasharray:none;stroke-opacity:1"
           id="rect3747"
           width="56.826324"
           height="56.826324"
           x="-730.82727"
           y="-429.75897"
           transform="matrix(-0.80901699,-0.58778525,0.58778525,-0.80901699,0,0)" />
        <path
           sodipodi:type="star"
           style="opacity:1;fill:#808080;fill-opacity:1;fill-rule:nonzero;stroke:none;stroke-width:1;stroke-linecap:round;stroke-linejoin:round;stroke-miterlimit:4;stroke-dasharray:none;stroke-opacity:1"
           id="path3749"
           sodipodi:sides="5"
           sodipodi:cx="372.04721"
           sodipodi:cy="503.65671"
           sodipodi:r1="19.799646"
           sodipodi:r2="9.8998232"
           sodipodi:arg1="-1.5707963"
           sodipodi:arg2="-0.9424778"
           inkscape:flatsided="false"
           inkscape:rounded="0"
           inkscape:randomized="0"
           d="m 372.04721,483.85706 5.81897,11.79052 13.01161,1.8907 -9.41529,9.17764 2.22265,12.95904 -11.63794,-6.11843 -11.63794,6.11843 2.22265,-12.95904 -9.41529,-9.17764 13.01161,-1.8907 z"
           inkscape:transform-center-x="-3.3271515"
           transform="matrix(0.80901699,0.58778525,-0.58778525,0.80901699,326.29793,112.94317)" />
      </g>
      <g
         transform="matrix(0.96327809,0,0,0.96327809,16.818647,-40.154776)"
         id="g5671">
        <g
           id="g4846"
           transform="translate(71.188644,291.25591)">
          <g
             transform="translate(289.68638,-78.774324)"
             id="g4665">
            <circle
               r="19.465469"
               cy="516.66583"
               cx="250.05569"
               id="circle4667"
               style="opacity:1;fill:#008080;fill-opacity:1;fill-rule:nonzero;stroke:#333333;stroke-width:0.5;stroke-linecap:round;stroke-linejoin:round;stroke-miterlimit:4;stroke-dasharray:none;stroke-opacity:1" />
            <path
               inkscape:connector-curvature="0"
               id="path4669"
               d="m 244.48594,509.00002 0.64914,3.78178 a 6.2754927,6.2754927 0 0 1 2.74433,-1.99811 l -3.39347,-1.78367 z m 11.13961,0 -3.39781,1.78656 a 6.2754927,6.2754927 0 0 1 2.75012,1.98653 l 0.64769,-3.77309 z m 0.6926,7.91421 a 6.2754927,6.2754927 0 0 1 -1.04325,3.23119 l 3.79193,-0.55206 -2.74868,-2.67913 z m -12.52915,0.003 -2.74433,2.67623 3.79337,0.55205 A 6.2754927,6.2754927 0 0 1 243.789,516.9172 Z m 4.56856,5.78424 1.69818,3.43984 1.69529,-3.43404 a 6.2754927,6.2754927 0 0 1 -1.69529,0.23473 6.2754927,6.2754927 0 0 1 -1.69818,-0.24053 z"
               style="opacity:1;fill:#ffffff;fill-opacity:1;fill-rule:nonzero;stroke:#ffffff;stroke-width:1.20000005;stroke-linecap:round;stroke-linejoin:round;stroke-miterlimit:4;stroke-dasharray:none;stroke-opacity:1" />
          </g>
          <g
             id="g4699"
             transform="translate(289.68638,-25.873079)">
            <circle
               style="opacity:1;fill:#008080;fill-opacity:1;fill-rule:nonzero;stroke:#333333;stroke-width:0.5;stroke-linecap:round;stroke-linejoin:round;stroke-miterlimit:4;stroke-dasharray:none;stroke-opacity:1"
               id="circle4701"
               cx="250.05569"
               cy="516.66583"
               r="19.465469" />
            <path
               style="opacity:1;fill:#ffffff;fill-opacity:1;fill-rule:nonzero;stroke:#ffffff;stroke-width:1.20000005;stroke-linecap:round;stroke-linejoin:round;stroke-miterlimit:4;stroke-dasharray:none;stroke-opacity:1"
               d="m 244.48594,509.00002 0.64914,3.78178 a 6.2754927,6.2754927 0 0 1 2.74433,-1.99811 l -3.39347,-1.78367 z m 11.13961,0 -3.39781,1.78656 a 6.2754927,6.2754927 0 0 1 2.75012,1.98653 l 0.64769,-3.77309 z m 0.6926,7.91421 a 6.2754927,6.2754927 0 0 1 -1.04325,3.23119 l 3.79193,-0.55206 -2.74868,-2.67913 z m -12.52915,0.003 -2.74433,2.67623 3.79337,0.55205 A 6.2754927,6.2754927 0 0 1 243.789,516.9172 Z m 4.56856,5.78424 1.69818,3.43984 1.69529,-3.43404 a 6.2754927,6.2754927 0 0 1 -1.69529,0.23473 6.2754927,6.2754927 0 0 1 -1.69818,-0.24053 z"
               id="path4703"
               inkscape:connector-curvature="0" />
          </g>
          <g
             transform="translate(289.68638,27.028166)"
             id="g4713">
            <circle
               r="19.465469"
               cy="516.66583"
               cx="250.05569"
               id="circle4715"
               style="opacity:1;fill:#008080;fill-opacity:1;fill-rule:nonzero;stroke:#333333;stroke-width:0.5;stroke-linecap:round;stroke-linejoin:round;stroke-miterlimit:4;stroke-dasharray:none;stroke-opacity:1" />
            <path
               inkscape:connector-curvature="0"
               id="path4717"
               d="m 244.48594,509.00002 0.64914,3.78178 a 6.2754927,6.2754927 0 0 1 2.74433,-1.99811 l -3.39347,-1.78367 z m 11.13961,0 -3.39781,1.78656 a 6.2754927,6.2754927 0 0 1 2.75012,1.98653 l 0.64769,-3.77309 z m 0.6926,7.91421 a 6.2754927,6.2754927 0 0 1 -1.04325,3.23119 l 3.79193,-0.55206 -2.74868,-2.67913 z m -12.52915,0.003 -2.74433,2.67623 3.79337,0.55205 A 6.2754927,6.2754927 0 0 1 243.789,516.9172 Z m 4.56856,5.78424 1.69818,3.43984 1.69529,-3.43404 a 6.2754927,6.2754927 0 0 1 -1.69529,0.23473 6.2754927,6.2754927 0 0 1 -1.69818,-0.24053 z"
               style="opacity:1;fill:#ffffff;fill-opacity:1;fill-rule:nonzero;stroke:#ffffff;stroke-width:1.20000005;stroke-linecap:round;stroke-linejoin:round;stroke-miterlimit:4;stroke-dasharray:none;stroke-opacity:1" />
          </g>
          <g
             id="g4727"
             transform="translate(289.68638,79.929408)">
            <circle
               style="opacity:1;fill:#008080;fill-opacity:1;fill-rule:nonzero;stroke:#333333;stroke-width:0.5;stroke-linecap:round;stroke-linejoin:round;stroke-miterlimit:4;stroke-dasharray:none;stroke-opacity:1"
               id="circle4729"
               cx="250.05569"
               cy="516.66583"
               r="19.465469" />
            <path
               style="opacity:1;fill:#ffffff;fill-opacity:1;fill-rule:nonzero;stroke:#ffffff;stroke-width:1.20000005;stroke-linecap:round;stroke-linejoin:round;stroke-miterlimit:4;stroke-dasharray:none;stroke-opacity:1"
               d="m 244.48594,509.00002 0.64914,3.78178 a 6.2754927,6.2754927 0 0 1 2.74433,-1.99811 l -3.39347,-1.78367 z m 11.13961,0 -3.39781,1.78656 a 6.2754927,6.2754927 0 0 1 2.75012,1.98653 l 0.64769,-3.77309 z m 0.6926,7.91421 a 6.2754927,6.2754927 0 0 1 -1.04325,3.23119 l 3.79193,-0.55206 -2.74868,-2.67913 z m -12.52915,0.003 -2.74433,2.67623 3.79337,0.55205 A 6.2754927,6.2754927 0 0 1 243.789,516.9172 Z m 4.56856,5.78424 1.69818,3.43984 1.69529,-3.43404 a 6.2754927,6.2754927 0 0 1 -1.69529,0.23473 6.2754927,6.2754927 0 0 1 -1.69818,-0.24053 z"
               id="path4731"
               inkscape:connector-curvature="0" />
          </g>
          <g
             transform="translate(289.68638,132.83066)"
             id="g4741">
            <circle
               r="19.465469"
               cy="516.66583"
               cx="250.05569"
               id="circle4743"
               style="opacity:1;fill:#008080;fill-opacity:1;fill-rule:nonzero;stroke:#333333;stroke-width:0.5;stroke-linecap:round;stroke-linejoin:round;stroke-miterlimit:4;stroke-dasharray:none;stroke-opacity:1" />
            <path
               inkscape:connector-curvature="0"
               id="path4745"
               d="m 244.48594,509.00002 0.64914,3.78178 a 6.2754927,6.2754927 0 0 1 2.74433,-1.99811 l -3.39347,-1.78367 z m 11.13961,0 -3.39781,1.78656 a 6.2754927,6.2754927 0 0 1 2.75012,1.98653 l 0.64769,-3.77309 z m 0.6926,7.91421 a 6.2754927,6.2754927 0 0 1 -1.04325,3.23119 l 3.79193,-0.55206 -2.74868,-2.67913 z m -12.52915,0.003 -2.74433,2.67623 3.79337,0.55205 A 6.2754927,6.2754927 0 0 1 243.789,516.9172 Z m 4.56856,5.78424 1.69818,3.43984 1.69529,-3.43404 a 6.2754927,6.2754927 0 0 1 -1.69529,0.23473 6.2754927,6.2754927 0 0 1 -1.69818,-0.24053 z"
               style="opacity:1;fill:#ffffff;fill-opacity:1;fill-rule:nonzero;stroke:#ffffff;stroke-width:1.20000005;stroke-linecap:round;stroke-linejoin:round;stroke-miterlimit:4;stroke-dasharray:none;stroke-opacity:1" />
          </g>
          <g
             id="g4755"
             transform="translate(289.68638,185.73194)">
            <circle
               style="opacity:1;fill:#008080;fill-opacity:1;fill-rule:nonzero;stroke:#333333;stroke-width:0.5;stroke-linecap:round;stroke-linejoin:round;stroke-miterlimit:4;stroke-dasharray:none;stroke-opacity:1"
               id="circle4757"
               cx="250.05569"
               cy="516.66583"
               r="19.465469" />
            <path
               style="opacity:1;fill:#ffffff;fill-opacity:1;fill-rule:nonzero;stroke:#ffffff;stroke-width:1.20000005;stroke-linecap:round;stroke-linejoin:round;stroke-miterlimit:4;stroke-dasharray:none;stroke-opacity:1"
               d="m 244.48594,509.00002 0.64914,3.78178 a 6.2754927,6.2754927 0 0 1 2.74433,-1.99811 l -3.39347,-1.78367 z m 11.13961,0 -3.39781,1.78656 a 6.2754927,6.2754927 0 0 1 2.75012,1.98653 l 0.64769,-3.77309 z m 0.6926,7.91421 a 6.2754927,6.2754927 0 0 1 -1.04325,3.23119 l 3.79193,-0.55206 -2.74868,-2.67913 z m -12.52915,0.003 -2.74433,2.67623 3.79337,0.55205 A 6.2754927,6.2754927 0 0 1 243.789,516.9172 Z m 4.56856,5.78424 1.69818,3.43984 1.69529,-3.43404 a 6.2754927,6.2754927 0 0 1 -1.69529,0.23473 6.2754927,6.2754927 0 0 1 -1.69818,-0.24053 z"
               id="path4759"
               inkscape:connector-curvature="0" />
          </g>
          <g
             transform="translate(289.68638,-131.67563)"
             id="g4769">
            <circle
               r="19.465469"
               cy="516.66583"
               cx="250.05569"
               id="circle4771"
               style="opacity:1;fill:#008080;fill-opacity:1;fill-rule:nonzero;stroke:#333333;stroke-width:0.5;stroke-linecap:round;stroke-linejoin:round;stroke-miterlimit:4;stroke-dasharray:none;stroke-opacity:1" />
            <path
               inkscape:connector-curvature="0"
               id="path4773"
               d="m 244.48594,509.00002 0.64914,3.78178 a 6.2754927,6.2754927 0 0 1 2.74433,-1.99811 l -3.39347,-1.78367 z m 11.13961,0 -3.39781,1.78656 a 6.2754927,6.2754927 0 0 1 2.75012,1.98653 l 0.64769,-3.77309 z m 0.6926,7.91421 a 6.2754927,6.2754927 0 0 1 -1.04325,3.23119 l 3.79193,-0.55206 -2.74868,-2.67913 z m -12.52915,0.003 -2.74433,2.67623 3.79337,0.55205 A 6.2754927,6.2754927 0 0 1 243.789,516.9172 Z m 4.56856,5.78424 1.69818,3.43984 1.69529,-3.43404 a 6.2754927,6.2754927 0 0 1 -1.69529,0.23473 6.2754927,6.2754927 0 0 1 -1.69818,-0.24053 z"
               style="opacity:1;fill:#ffffff;fill-opacity:1;fill-rule:nonzero;stroke:#ffffff;stroke-width:1.20000005;stroke-linecap:round;stroke-linejoin:round;stroke-miterlimit:4;stroke-dasharray:none;stroke-opacity:1" />
          </g>
        </g>
        <g
           id="g4823"
           transform="translate(92.316366,291.25591)">
          <g
             transform="translate(289.68638,-78.774324)"
             id="g4671">
            <circle
               style="opacity:1;fill:#ab37c8;fill-opacity:1;fill-rule:nonzero;stroke:#333333;stroke-width:0.5;stroke-linecap:round;stroke-linejoin:round;stroke-miterlimit:4;stroke-dasharray:none;stroke-opacity:1"
               id="circle4673"
               cx="300.53043"
               cy="516.66583"
               r="19.465469" />
            <path
               style="opacity:1;fill:#ffffff;fill-opacity:1;fill-rule:nonzero;stroke:#ffffff;stroke-width:1.20000005;stroke-linecap:round;stroke-linejoin:round;stroke-miterlimit:4;stroke-dasharray:none;stroke-opacity:1"
               d="m 294.96067,509.00002 0.64914,3.78178 a 6.2754927,6.2754927 0 0 1 2.74433,-1.99811 l -3.39347,-1.78367 z m 11.13961,0 -3.39781,1.78656 a 6.2754927,6.2754927 0 0 1 2.75012,1.98653 l 0.64769,-3.77309 z m 0.6926,7.91421 a 6.2754927,6.2754927 0 0 1 -1.04325,3.23119 l 3.79193,-0.55206 -2.74868,-2.67913 z m -12.52915,0.003 -2.74433,2.67623 3.79337,0.55205 a 6.2754927,6.2754927 0 0 1 -1.04904,-3.22831 z m 4.56856,5.78424 1.69818,3.43984 1.69529,-3.43404 a 6.2754927,6.2754927 0 0 1 -1.69529,0.23473 6.2754927,6.2754927 0 0 1 -1.69818,-0.24053 z"
               id="path4675"
               inkscape:connector-curvature="0" />
          </g>
          <g
             id="g4705"
             transform="translate(289.68638,-25.873079)">
            <circle
               r="19.465469"
               cy="516.66583"
               cx="300.53043"
               id="circle4707"
               style="opacity:1;fill:#ab37c8;fill-opacity:1;fill-rule:nonzero;stroke:#333333;stroke-width:0.5;stroke-linecap:round;stroke-linejoin:round;stroke-miterlimit:4;stroke-dasharray:none;stroke-opacity:1" />
            <path
               inkscape:connector-curvature="0"
               id="path4709"
               d="m 294.96067,509.00002 0.64914,3.78178 a 6.2754927,6.2754927 0 0 1 2.74433,-1.99811 l -3.39347,-1.78367 z m 11.13961,0 -3.39781,1.78656 a 6.2754927,6.2754927 0 0 1 2.75012,1.98653 l 0.64769,-3.77309 z m 0.6926,7.91421 a 6.2754927,6.2754927 0 0 1 -1.04325,3.23119 l 3.79193,-0.55206 -2.74868,-2.67913 z m -12.52915,0.003 -2.74433,2.67623 3.79337,0.55205 a 6.2754927,6.2754927 0 0 1 -1.04904,-3.22831 z m 4.56856,5.78424 1.69818,3.43984 1.69529,-3.43404 a 6.2754927,6.2754927 0 0 1 -1.69529,0.23473 6.2754927,6.2754927 0 0 1 -1.69818,-0.24053 z"
               style="opacity:1;fill:#ffffff;fill-opacity:1;fill-rule:nonzero;stroke:#ffffff;stroke-width:1.20000005;stroke-linecap:round;stroke-linejoin:round;stroke-miterlimit:4;stroke-dasharray:none;stroke-opacity:1" />
          </g>
          <g
             transform="translate(289.68638,27.028166)"
             id="g4719">
            <circle
               style="opacity:1;fill:#ab37c8;fill-opacity:1;fill-rule:nonzero;stroke:#333333;stroke-width:0.5;stroke-linecap:round;stroke-linejoin:round;stroke-miterlimit:4;stroke-dasharray:none;stroke-opacity:1"
               id="circle4721"
               cx="300.53043"
               cy="516.66583"
               r="19.465469" />
            <path
               style="opacity:1;fill:#ffffff;fill-opacity:1;fill-rule:nonzero;stroke:#ffffff;stroke-width:1.20000005;stroke-linecap:round;stroke-linejoin:round;stroke-miterlimit:4;stroke-dasharray:none;stroke-opacity:1"
               d="m 294.96067,509.00002 0.64914,3.78178 a 6.2754927,6.2754927 0 0 1 2.74433,-1.99811 l -3.39347,-1.78367 z m 11.13961,0 -3.39781,1.78656 a 6.2754927,6.2754927 0 0 1 2.75012,1.98653 l 0.64769,-3.77309 z m 0.6926,7.91421 a 6.2754927,6.2754927 0 0 1 -1.04325,3.23119 l 3.79193,-0.55206 -2.74868,-2.67913 z m -12.52915,0.003 -2.74433,2.67623 3.79337,0.55205 a 6.2754927,6.2754927 0 0 1 -1.04904,-3.22831 z m 4.56856,5.78424 1.69818,3.43984 1.69529,-3.43404 a 6.2754927,6.2754927 0 0 1 -1.69529,0.23473 6.2754927,6.2754927 0 0 1 -1.69818,-0.24053 z"
               id="path4723"
               inkscape:connector-curvature="0" />
          </g>
          <g
             id="g4733"
             transform="translate(289.68638,79.929408)">
            <circle
               r="19.465469"
               cy="516.66583"
               cx="300.53043"
               id="circle4735"
               style="opacity:1;fill:#ab37c8;fill-opacity:1;fill-rule:nonzero;stroke:#333333;stroke-width:0.5;stroke-linecap:round;stroke-linejoin:round;stroke-miterlimit:4;stroke-dasharray:none;stroke-opacity:1" />
            <path
               inkscape:connector-curvature="0"
               id="path4737"
               d="m 294.96067,509.00002 0.64914,3.78178 a 6.2754927,6.2754927 0 0 1 2.74433,-1.99811 l -3.39347,-1.78367 z m 11.13961,0 -3.39781,1.78656 a 6.2754927,6.2754927 0 0 1 2.75012,1.98653 l 0.64769,-3.77309 z m 0.6926,7.91421 a 6.2754927,6.2754927 0 0 1 -1.04325,3.23119 l 3.79193,-0.55206 -2.74868,-2.67913 z m -12.52915,0.003 -2.74433,2.67623 3.79337,0.55205 a 6.2754927,6.2754927 0 0 1 -1.04904,-3.22831 z m 4.56856,5.78424 1.69818,3.43984 1.69529,-3.43404 a 6.2754927,6.2754927 0 0 1 -1.69529,0.23473 6.2754927,6.2754927 0 0 1 -1.69818,-0.24053 z"
               style="opacity:1;fill:#ffffff;fill-opacity:1;fill-rule:nonzero;stroke:#ffffff;stroke-width:1.20000005;stroke-linecap:round;stroke-linejoin:round;stroke-miterlimit:4;stroke-dasharray:none;stroke-opacity:1" />
          </g>
          <g
             transform="translate(289.68638,132.83066)"
             id="g4747">
            <circle
               style="opacity:1;fill:#ab37c8;fill-opacity:1;fill-rule:nonzero;stroke:#333333;stroke-width:0.5;stroke-linecap:round;stroke-linejoin:round;stroke-miterlimit:4;stroke-dasharray:none;stroke-opacity:1"
               id="circle4749"
               cx="300.53043"
               cy="516.66583"
               r="19.465469" />
            <path
               style="opacity:1;fill:#ffffff;fill-opacity:1;fill-rule:nonzero;stroke:#ffffff;stroke-width:1.20000005;stroke-linecap:round;stroke-linejoin:round;stroke-miterlimit:4;stroke-dasharray:none;stroke-opacity:1"
               d="m 294.96067,509.00002 0.64914,3.78178 a 6.2754927,6.2754927 0 0 1 2.74433,-1.99811 l -3.39347,-1.78367 z m 11.13961,0 -3.39781,1.78656 a 6.2754927,6.2754927 0 0 1 2.75012,1.98653 l 0.64769,-3.77309 z m 0.6926,7.91421 a 6.2754927,6.2754927 0 0 1 -1.04325,3.23119 l 3.79193,-0.55206 -2.74868,-2.67913 z m -12.52915,0.003 -2.74433,2.67623 3.79337,0.55205 a 6.2754927,6.2754927 0 0 1 -1.04904,-3.22831 z m 4.56856,5.78424 1.69818,3.43984 1.69529,-3.43404 a 6.2754927,6.2754927 0 0 1 -1.69529,0.23473 6.2754927,6.2754927 0 0 1 -1.69818,-0.24053 z"
               id="path4751"
               inkscape:connector-curvature="0" />
          </g>
          <g
             id="g4761"
             transform="translate(289.68638,185.73194)">
            <circle
               r="19.465469"
               cy="516.66583"
               cx="300.53043"
               id="circle4763"
               style="opacity:1;fill:#ab37c8;fill-opacity:1;fill-rule:nonzero;stroke:#333333;stroke-width:0.5;stroke-linecap:round;stroke-linejoin:round;stroke-miterlimit:4;stroke-dasharray:none;stroke-opacity:1" />
            <path
               inkscape:connector-curvature="0"
               id="path4765"
               d="m 294.96067,509.00002 0.64914,3.78178 a 6.2754927,6.2754927 0 0 1 2.74433,-1.99811 l -3.39347,-1.78367 z m 11.13961,0 -3.39781,1.78656 a 6.2754927,6.2754927 0 0 1 2.75012,1.98653 l 0.64769,-3.77309 z m 0.6926,7.91421 a 6.2754927,6.2754927 0 0 1 -1.04325,3.23119 l 3.79193,-0.55206 -2.74868,-2.67913 z m -12.52915,0.003 -2.74433,2.67623 3.79337,0.55205 a 6.2754927,6.2754927 0 0 1 -1.04904,-3.22831 z m 4.56856,5.78424 1.69818,3.43984 1.69529,-3.43404 a 6.2754927,6.2754927 0 0 1 -1.69529,0.23473 6.2754927,6.2754927 0 0 1 -1.69818,-0.24053 z"
               style="opacity:1;fill:#ffffff;fill-opacity:1;fill-rule:nonzero;stroke:#ffffff;stroke-width:1.20000005;stroke-linecap:round;stroke-linejoin:round;stroke-miterlimit:4;stroke-dasharray:none;stroke-opacity:1" />
          </g>
          <g
             transform="translate(289.68638,-131.67563)"
             id="g4775">
            <circle
               style="opacity:1;fill:#ab37c8;fill-opacity:1;fill-rule:nonzero;stroke:#333333;stroke-width:0.5;stroke-linecap:round;stroke-linejoin:round;stroke-miterlimit:4;stroke-dasharray:none;stroke-opacity:1"
               id="circle4777"
               cx="300.53043"
               cy="516.66583"
               r="19.465469" />
            <path
               style="opacity:1;fill:#ffffff;fill-opacity:1;fill-rule:nonzero;stroke:#ffffff;stroke-width:1.20000005;stroke-linecap:round;stroke-linejoin:round;stroke-miterlimit:4;stroke-dasharray:none;stroke-opacity:1"
               d="m 294.96067,509.00002 0.64914,3.78178 a 6.2754927,6.2754927 0 0 1 2.74433,-1.99811 l -3.39347,-1.78367 z m 11.13961,0 -3.39781,1.78656 a 6.2754927,6.2754927 0 0 1 2.75012,1.98653 l 0.64769,-3.77309 z m 0.6926,7.91421 a 6.2754927,6.2754927 0 0 1 -1.04325,3.23119 l 3.79193,-0.55206 -2.74868,-2.67913 z m -12.52915,0.003 -2.74433,2.67623 3.79337,0.55205 a 6.2754927,6.2754927 0 0 1 -1.04904,-3.22831 z m 4.56856,5.78424 1.69818,3.43984 1.69529,-3.43404 a 6.2754927,6.2754927 0 0 1 -1.69529,0.23473 6.2754927,6.2754927 0 0 1 -1.69818,-0.24053 z"
               id="path4779"
               inkscape:connector-curvature="0" />
          </g>
        </g>
      </g>
      <g
         transform="matrix(0.87351906,0,0,0.87351906,524.02527,2.8119851)"
         id="g5425">
        <g
           id="g5102"
           transform="translate(171.10963,-150.51972)">
          <text
             sodipodi:linespacing="125%"
             id="text5090"
             y="232.41705"
             x="-64.441628"
             style="font-style:normal;font-variant:normal;font-weight:normal;font-stretch:normal;font-size:39.97967529px;line-height:125%;font-family:'Trading Post NF';-inkscape-font-specification:'Trading Post NF';letter-spacing:0px;word-spacing:0px;fill:#000000;fill-opacity:1;stroke:none;stroke-width:1px;stroke-linecap:butt;stroke-linejoin:miter;stroke-opacity:1"
             xml:space="preserve"><tspan
               y="232.41705"
               x="-64.441628"
               id="tspan5092"
               sodipodi:role="line">The</tspan></text>
          <text
             sodipodi:linespacing="125%"
             id="text5094"
             y="340.36221"
             x="-114.52928"
             style="font-style:normal;font-variant:normal;font-weight:normal;font-stretch:normal;font-size:39.97967529px;line-height:125%;font-family:'Trading Post NF';-inkscape-font-specification:'Trading Post NF';letter-spacing:0px;word-spacing:0px;fill:#000000;fill-opacity:1;stroke:none;stroke-width:1px;stroke-linecap:butt;stroke-linejoin:miter;stroke-opacity:1"
             xml:space="preserve"><tspan
               y="340.36221"
               x="-114.52928"
               id="tspan5096"
               sodipodi:role="line">Game of Ur</tspan></text>
          <text
             sodipodi:linespacing="125%"
             id="text5098"
             y="281.71948"
             x="-114.63893"
             style="font-style:normal;font-weight:normal;font-size:56.27132034px;line-height:125%;font-family:Sans;letter-spacing:0px;word-spacing:0px;fill:#000000;fill-opacity:1;stroke:none;stroke-width:1px;stroke-linecap:butt;stroke-linejoin:miter;stroke-opacity:1"
             xml:space="preserve"><tspan
               style="font-style:normal;font-variant:normal;font-weight:100;font-stretch:normal;font-family:Computerfont;-inkscape-font-specification:'Computerfont Thin'"
               y="281.71948"
               x="-114.63893"
               id="tspan5100"
               sodipodi:role="line">Spatial</tspan></text>
        </g>
        <text
           sodipodi:linespacing="125%"
           id="text5407"
           y="-192.23813"
           x="213.89323"
           style="font-style:normal;font-weight:normal;font-size:17.9597702px;line-height:125%;font-family:Sans;letter-spacing:0px;word-spacing:0px;fill:#000000;fill-opacity:1;stroke:none;stroke-width:1px;stroke-linecap:butt;stroke-linejoin:miter;stroke-opacity:1"
           xml:space="preserve"
           transform="matrix(0,1,-1,0,0,0)"><tspan
             id="tspan5409"
             style="font-style:normal;font-variant:normal;font-weight:normal;font-stretch:normal;font-family:'Trading Post NF';-inkscape-font-specification:'Trading Post NF'"
             y="-192.23813"
             x="213.89323"
             sodipodi:role="line">Roll any even-faced die (D6 is ok), count the number of odd dice.</tspan><tspan
             style="font-style:normal;font-variant:normal;font-weight:normal;font-stretch:normal;font-family:'Trading Post NF';-inkscape-font-specification:'Trading Post NF'"
             id="tspan5411"
             y="-169.78842"
             x="213.89323"
             sodipodi:role="line">Advance one of your pieces by this amount exactly, if possible.</tspan><tspan
             style="font-style:normal;font-variant:normal;font-weight:normal;font-stretch:normal;font-family:'Trading Post NF';-inkscape-font-specification:'Trading Post NF'"
             id="tspan5413"
             y="-147.3387"
             x="213.89323"
             sodipodi:role="line">Pieces start from the propeller.</tspan><tspan
             id="tspan5415"
             style="font-style:normal;font-variant:normal;font-weight:normal;font-stretch:normal;font-family:'Trading Post NF';-inkscape-font-specification:'Trading Post NF'"
             y="-124.88899"
             x="213.89323"
             sodipodi:role="line">A piece jumping on other's piece sends it back to the start.</tspan><tspan
             id="tspan5417"
             style="font-style:normal;font-variant:normal;font-weight:normal;font-stretch:normal;font-family:'Trading Post NF';-inkscape-font-specification:'Trading Post NF'"
             y="-102.43928"
             x="213.89323"
             sodipodi:role="line">Roll again on stars. The middle star protects the piece on it.</tspan><tspan
             id="tspan5419"
             style="font-style:normal;font-variant:normal;font-weight:normal;font-stretch:normal;font-family:'Trading Post NF';-inkscape-font-specification:'Trading Post NF'"
             y="-79.989563"
             x="213.89323"
             sodipodi:role="line">Exit only arriving exactly on the pointy exit.</tspan><tspan
             id="tspan5421"
             style="font-style:normal;font-variant:normal;font-weight:normal;font-stretch:normal;font-family:'Trading Post NF';-inkscape-font-specification:'Trading Post NF'"
             y="-57.539852"
             x="213.89323"
             sodipodi:role="line">First to bring 7 pieces to the exit wins the match.</tspan><tspan
             style="font-style:normal;font-variant:normal;font-weight:normal;font-stretch:normal;font-family:'Trading Post NF';-inkscape-font-specification:'Trading Post NF'"
             id="tspan5423"
             y="-35.090141"
             x="213.89323"
             sodipodi:role="line" /></text>
      </g>
      <text
         sodipodi:linespacing="125%"
         id="text6107"
         y="995.63367"
         x="639.80438"
         style="font-style:normal;font-weight:normal;font-size:11.53131294px;line-height:125%;font-family:Sans;letter-spacing:0px;word-spacing:0px;fill:#000000;fill-opacity:1;stroke:none;stroke-width:1px;stroke-linecap:butt;stroke-linejoin:miter;stroke-opacity:1"
         xml:space="preserve"><tspan
           id="tspan6111"
           style="font-style:normal;font-variant:normal;font-weight:normal;font-stretch:normal;font-family:'Trading Post NF';-inkscape-font-specification:'Trading Post NF';text-align:center;text-anchor:middle"
           y="995.63367"
           x="639.80438"
           sodipodi:role="line">© Flavio Poletti 2020 - CC BY 4.0</tspan><tspan
           id="tspan6115"
           style="font-style:normal;font-variant:normal;font-weight:normal;font-stretch:normal;font-size:8.64848423px;font-family:'Trading Post NF';-inkscape-font-specification:'Trading Post NF';text-align:center;text-anchor:middle"
           y="1007.1344"
           x="639.80438"
           sodipodi:role="line">https://creativecommons.org/licenses/by/4.0/</tspan></text>
    </g>
  </g>
</svg>
