<?xml version="1.0" encoding="UTF-8" standalone="yes"?>
<!DOCTYPE svg PUBLIC "-//W3C//DTD SVG 1.0//EN" "http://www.w3.org/TR/2001/REC-SVG-20010904/DTD/svg10.dtd">
<svg height="88mm" viewBox="0 0 210 297" width="62mm" xmlns="http://www.w3.org/2000/svg" xmlns:svg="http://www.w3.org/2000/svg" xmlns:xlink="http://www.w3.org/1999/xlink">
	<rect height="100%" rx="10" style="fill: #f7f7f7; stroke: none" width="100%" x="0" y="0" />
	<defs>
		<g id="half" style="fill: #000; stroke: #000; stroke-width: 0">
			<g transform="translate(39.4285714285714,24.2448979591837)">
				<path d="m 19.853300,25.883042c 0.000000,0.000000 0.372534,-7.653874 0.101600,-11.853345c -0.101600,-1.727201 -0.541867,-4.538137 -0.948268,-6.231472c -0.135466,-0.575734 -0.745067,-1.151468 -1.354668,-1.286935c -1.151467,-0.203200 -3.081869,-0.406400 -4.233337,-0.406400c -0.101600,0.000000 -0.270934,0.000000 -0.372534,0.000000c -3.217336,0.067730 -4.470404,0.406400 -5.012271,0.677334c -0.203200,0.101600 -0.575734,0.338667 -0.778934,0.508000c -0.237067,0.203200 -0.508001,0.609601 -0.575734,0.914401c -0.541867,2.675469 -0.982134,7.078140 -0.982134,9.821343c 0.000000,0.101600 0.000000,0.304800 0.000000,0.440267c 0.000000,5.113872 0.000000,8.263475 0.135466,9.516542c 0.033870,0.372534 0.338667,0.812801 0.677334,0.982135c 0.846668,0.372533 2.302936,0.677334 3.251203,0.677334c 0.169334,0.000000 0.440268,-0.033870 0.575734,-0.033870c 2.032002,-0.135467 5.249339,-0.643467 7.213607,-1.117601c 1.964269,-0.474134 4.402671,1.761068 4.707472,1.354668c 0.304800,-0.406400 -0.982135,-2.472269 -2.404536,-3.962404zm -2.540003,-0.440267c -0.101600,0.474134 -0.541867,0.948268 -1.016001,1.083734c -0.440267,0.135467 -1.185334,0.270934 -1.659468,0.270934c -0.033870,0.000000 -0.033870,0.000000 -0.033870,0.000000c -0.609600,-0.067730 -1.557868,-0.270934 -2.099735,-0.474134c -0.270933,-0.101600 -0.541867,-0.406400 -0.575734,-0.677334c -0.135467,-0.677334 -0.135467,-2.269069 -0.169333,-6.366939c -0.067730,-4.267204 0.406400,-6.028273 0.745067,-6.705607c 0.135467,-0.270933 0.474134,-0.474133 0.745068,-0.474133l 0.000000,0.000000l 2.810936,0.000000c 0.338667,0.000000 0.711200,0.270933 0.778934,0.643467c 0.237067,0.914401 0.440267,3.014136 0.643467,7.078140c 0.169333,3.149603 0.033870,4.775205 -0.169334,5.621872z" transform="matrix(1.68367346938776,0,0,1.68367346938776,0,0)" />
			</g>
			<g transform="translate(77.4117647058823,101.838535414166)">
				<path d="M422.625 18.28c-24.68.13-51.932 15.455-74.094 36.907 1.868 1.036 3.742 2.07 5.626 3.157 8.05 4.642 15.615 9.363 22.72 14.125 25.19-9.583 55.47-14.465 103.437-2.97-12.036-37.07-33.633-51.345-57.688-51.22zM237.78 40.22l28.97 94.25c12.57 6.443 24.827 13.41 36.813 20.843l-36.625-111.97c-8.476-1.68-16.657-2.662-24.563-3-1.54-.065-3.074-.108-4.594-.124zm-19.218 1.124c-1.602.206-3.202.427-4.78.687-8.815 1.454-17.338 3.755-25.595 6.876l15.688 58.625c13.62 4.75 26.922 10.064 39.906 15.907l-25.218-82.093zm69.875 7.593l40.157 122.876c15.922 11.124 31.32 23.128 46.25 35.906L325.906 64.374c-13.092-6.527-25.568-11.643-37.47-15.438zm-117.5 7.844c-14.657 7.857-28.523 18.348-41.875 31.095 18.42 3.334 36.298 7.632 53.657 12.813L170.937 56.78zm179.25 20.907l53.282 155.97c10.798 10.382 21.322 21.187 31.624 32.374.395-1.174.75-2.332 1.125-3.5L379.843 97.407c-8.84-6.63-18.706-13.185-29.656-19.72zM136.595 108.25c-17.05 11.436-32.43 27.876-45.344 50.22-42.303 73.19-61.83 198.325-24.53 265.717l-.064-.062c.752 23.392-7.597 45.63-17.812 67.594 27.268-12.192 54.897-17.815 82.687-20.783l-.468-.343c87.895 19.01 212.87-49.42 260.688-132.156 13.547-23.44 20.606-46.14 22.28-67.72-77.218-81.572-166.868-139.912-277.436-162.468zm271.469 14L444.188 228c2.638-20.573.96-39.855-5.688-58.25-5.856-16.202-15.717-32.01-30.438-47.5z" transform="matrix(0.0402113970588235,0,0,0.0402113970588235,0,0)" />
			</g>
			<g transform="translate(116.69387755102,24.2448979591837)">
				<path d="M458.915 307.705c0 62.63-54 91.32-91.34 91.34-41.64 0-73.1-18.86-91.83-34.26 2.47 50.95 14.53 87.35 68.65 116h-176.79c54.12-28.65 66.18-65.05 68.65-116-18.73 15.39-50.2 34.28-91.83 34.26-37.29 0-91.34-28.71-91.34-91.34 0-114.47 80.64-83.32 202.91-276.49 122.28 193.17 202.92 162.03 202.92 276.49z" transform="matrix(0.118383290816327,0,0,0.118383290816327,0,0)" />
			</g>
		</g>
	</defs>
	<use xlink:href="#half" />
	<use transform="matrix(-1,0,0,-1,210,297)" xlink:href="#half" />
</svg>